<?xml version="1.0" encoding="UTF-8"?>
<svg version="1.1" xmlns="http://www.w3.org/2000/svg" width="540" height="462">
<path d="M0 0 C0.99 0.33 1.98 0.66 3 1 C3.495 3.97 3.495 3.97 4 7 C4.66 7 5.32 7 6 7 C5.690625 6.1028125 5.690625 6.1028125 5.375 5.1875 C5 3 5 3 7 0 C10.13386725 0.57808792 11.77037289 1.39712173 14.00854492 3.65209961 C14.56559616 4.20614975 15.1226474 4.76019989 15.69657898 5.33103943 C16.2852626 5.93206985 16.87394623 6.53310028 17.48046875 7.15234375 C18.09392654 7.76767471 18.70738434 8.38300568 19.33943176 9.01698303 C20.63304929 10.3173161 21.92306731 11.62123863 23.2097168 12.9284668 C25.18351017 14.93344713 27.1678048 16.92753006 29.15429688 18.91992188 C30.40948049 20.18427436 31.66405882 21.44922809 32.91796875 22.71484375 C33.51272507 23.31384995 34.10748138 23.91285614 34.72026062 24.53001404 C39.69997065 29.59709303 40.14362991 32.14806919 40.09765625 39.0703125 C40.0962413 39.86654022 40.09482635 40.66276794 40.09336853 41.48312378 C40.08776345 44.0304538 40.07521014 46.57769647 40.0625 49.125 C40.05748565 50.85025915 40.05292263 52.57551967 40.04882812 54.30078125 C40.03779237 58.53388791 40.02052436 62.76692914 40 67 C40.99 67 41.98 67 43 67 C42.97381592 65.94087402 42.94763184 64.88174805 42.9206543 63.79052734 C42.82983448 59.84347845 42.77263658 55.896521 42.7253418 51.94873047 C42.70026955 50.24349411 42.66620236 48.53836446 42.62280273 46.83349609 C42.56182434 44.37570826 42.53371888 41.91934639 42.51171875 39.4609375 C42.48591232 38.70444916 42.4601059 37.94796082 42.43351746 37.16854858 C42.43140544 33.14033779 42.8130951 30.74467938 45.41259766 27.58154297 C47.45652155 25.5422477 49.46196022 23.58450134 51.6875 21.75 C56.73867041 17.44502522 61.34449431 12.72385733 66 8 C66.88300781 7.13632812 67.76601562 6.27265625 68.67578125 5.3828125 C71.11186425 3.03142374 71.11186425 3.03142374 73 0 C74.98 0.495 74.98 0.495 77 1 C77.16378332 15.59500095 77.28708824 30.18987969 77.3626852 44.78561401 C77.39872514 51.56328111 77.44782731 58.34037604 77.52807617 65.11767578 C77.60550438 71.65990033 77.64600776 78.20175412 77.6641407 84.74441528 C77.67706057 87.23871203 77.70229065 89.73297679 77.7401104 92.22702026 C77.79103707 95.72497416 77.79791875 99.22048418 77.79467773 102.71875 C77.83242813 104.26055687 77.83242813 104.26055687 77.87094116 105.83351135 C77.80538868 112.38556972 76.45083171 115.71128076 71.78090286 120.35018063 C71.19320492 120.89462102 70.60550697 121.43906141 70 122 C69.04677625 123.00641877 68.09884088 124.01788555 67.1574707 125.03540039 C64.7360779 127.52820794 62.30795573 130.01346953 59.86499023 132.48510742 C58.81928516 133.54758587 57.77900364 134.61542642 56.74389648 135.68823242 C55.23304759 137.25352206 53.70668464 138.80200638 52.17578125 140.34765625 C51.27770752 141.26554932 50.37963379 142.18344238 49.4543457 143.12915039 C48.64441162 143.74653076 47.83447754 144.36391113 47 145 C45.68 144.67 44.36 144.34 43 144 C43 129.15 43 114.3 43 99 C42.01 99 41.02 99 40 99 C40 113.85 40 128.7 40 144 C34.76667141 144 32.88271155 141.64573795 29.30078125 138.21875 C28.66512741 137.61301147 28.02947357 137.00727295 27.3745575 136.38317871 C26.03152072 135.09110937 24.69448565 133.7927771 23.36303711 132.48876953 C21.34070309 130.52735353 19.27376529 128.62286706 17.20117188 126.71484375 C15.89790438 125.44853337 14.59767482 124.17908747 13.30078125 122.90625 C12.68415115 122.35449097 12.06752106 121.80273193 11.4322052 121.23425293 C5.32001014 114.9952322 5.99943589 107.1831166 6 99 C5.98089066 97.68153076 5.96178131 96.36306152 5.9420929 95.00463867 C5.90829947 91.63406518 5.90459346 88.26704435 5.92483521 84.89658356 C5.93794427 82.69087266 5.94419865 80.48522388 5.94897461 78.27947998 C5.96022972 73.60295812 5.97948326 68.92648919 6 64.25 C6.02380813 58.80535979 6.04411017 53.36074954 6.05593872 47.91606903 C6.06231031 45.76710347 6.07480629 43.61823439 6.08764648 41.46929932 C6.11667215 33.59608642 5.81834856 25.83358855 5 18 C4.45877692 21.1700209 3.9879161 24.22153812 3.8125 27.4375 C2.72658257 32.19883029 0.37640772 34.59882645 -3 38 C-3.763125 38.78375 -4.52625 39.5675 -5.3125 40.375 C-6.199375 41.24125 -7.08625 42.1075 -8 43 C-9.58649864 44.55928597 -11.16957652 46.12205683 -12.75 47.6875 C-13.52859375 48.45449219 -14.3071875 49.22148438 -15.109375 50.01171875 C-17.05230615 51.8610699 -17.05230615 51.8610699 -18 54 C-18.66 54 -19.32 54 -20 54 C-20.33 54.99 -20.66 55.98 -21 57 C-22.66666667 58.33333333 -24.33333333 59.66666667 -26 61 C-29.95239195 64.50877658 -32.33778792 67.43590448 -32.70947266 72.83032227 C-32.72328966 74.65902737 -32.70663711 76.48814459 -32.6640625 78.31640625 C-32.670392 79.77843727 -32.670392 79.77843727 -32.67684937 81.27000427 C-32.68767445 84.36828837 -32.65970972 87.46441619 -32.625 90.5625 C-32.60091176 93.66386071 -32.58578417 96.76425808 -32.59457397 99.8657074 C-32.59913184 101.79013122 -32.58459361 103.71472322 -32.54824829 105.6388092 C-32.55151078 113.76441984 -35.49435199 117.68702776 -41.16223145 123.46577454 C-41.67588257 123.97851425 -42.18953369 124.49125397 -42.71875 125.01953125 C-43.25850464 125.56357101 -43.79825928 126.10761078 -44.35437012 126.6681366 C-45.48810245 127.80757529 -46.62441473 128.94445228 -47.76318359 130.07885742 C-49.503822 131.81631502 -51.23065332 133.56674486 -52.95703125 135.31835938 C-54.06429352 136.42789292 -55.17233955 137.53664496 -56.28125 138.64453125 C-56.79490112 139.16739212 -57.30855225 139.69025299 -57.83776855 140.22895813 C-60.40282034 142.76122318 -62.31939731 144.62964209 -66 145 C-67.46245079 142.07509842 -67.16785047 139.46511366 -67.20874023 136.19873047 C-67.22341591 135.14955193 -67.22341591 135.14955193 -67.23838806 134.07917786 C-67.26835992 131.75853375 -67.2897376 129.43794762 -67.30859375 127.1171875 C-67.31516558 126.3236298 -67.3217374 125.5300721 -67.32850838 124.71246719 C-67.36111706 120.50819939 -67.38555871 116.30395701 -67.4050293 112.09960938 C-67.42280975 108.62690065 -67.45757351 105.15500897 -67.50756836 101.68261719 C-67.56793128 97.48510677 -67.59852751 93.28835117 -67.60820198 89.0904274 C-67.61673447 87.4948664 -67.63549823 85.89932436 -67.6649456 84.3040123 C-67.92879 69.19073188 -67.92879 69.19073188 -62.60227966 63.49404907 C-62.07352737 63.00101288 -61.54477509 62.50797668 -61 62 C-60.21536377 61.14567383 -59.43072754 60.29134766 -58.62231445 59.41113281 C-57.8768335 58.68249023 -57.13135254 57.95384766 -56.36328125 57.203125 C-55.12674805 55.98302734 -55.12674805 55.98302734 -53.86523438 54.73828125 C-53.02283203 53.91714844 -52.18042969 53.09601563 -51.3125 52.25 C-49.61883342 50.59084587 -47.92733793 48.92947188 -46.23828125 47.265625 C-45.49618408 46.54149414 -44.75408691 45.81736328 -43.98950195 45.07128906 C-41.9575828 43.05153257 -41.9575828 43.05153257 -40.36010742 40.73339844 C-39.91127197 40.16137695 -39.46243652 39.58935547 -39 39 C-38.34 39 -37.68 39 -37 39 C-37 38.34 -37 37.68 -37 37 C-36.34 37 -35.68 37 -35 37 C-34.73716217 36.41184509 -34.47432434 35.82369019 -34.20352173 35.2177124 C-32.94186496 32.89287538 -31.6164494 31.37510246 -29.74365234 29.51660156 C-29.08311859 28.85621887 -28.42258484 28.19583618 -27.74203491 27.51544189 C-27.03052277 26.81425232 -26.31901062 26.11306274 -25.5859375 25.390625 C-24.85629791 24.66381531 -24.12665833 23.93700562 -23.37490845 23.18817139 C-21.0462612 20.87070802 -18.71075174 18.5603005 -16.375 16.25 C-14.79381347 14.67884556 -13.21307875 13.10723629 -11.6328125 11.53515625 C-7.7604331 7.68481347 -3.88239829 3.84023883 0 0 Z " fill="#028F46" transform="translate(185,29)"/>
<path d="M0 0 C2.64 0 5.28 0 8 0 C8.495 3.465 8.495 3.465 9 7 C9.99 7.33 10.98 7.66 12 8 C12 10.31 12 12.62 12 15 C23.88 14.67 35.76 14.34 48 14 C47.505 13.01 47.505 13.01 47 12 C47.9375 9.375 47.9375 9.375 49 7 C51.31 7 53.62 7 56 7 C56 9.64 56 12.28 56 15 C67.55 15 79.1 15 91 15 C91 14.34 91 13.68 91 13 C87.37 13 83.74 13 80 13 C80 11.02 80 9.04 80 7 C82.24940295 6.91880497 84.49964871 6.86072181 86.75 6.8125 C88.00296875 6.77769531 89.2559375 6.74289063 90.546875 6.70703125 C94.14921951 7.01266003 95.54484418 7.39753483 98 10 C98.25 12.6875 98.25 12.6875 98 15 C100.64 15 103.28 15 106 15 C106 10.05 106 5.1 106 0 C108.64 0 111.28 0 114 0 C114.08086376 2.93804996 114.1404283 5.87388075 114.1875 8.8125 C114.21263672 9.64587891 114.23777344 10.47925781 114.26367188 11.33789062 C114.27817383 12.54155273 114.27817383 12.54155273 114.29296875 13.76953125 C114.31653442 14.87711792 114.31653442 14.87711792 114.34057617 16.00708008 C113.88489052 18.67357615 113.16109637 19.37944221 111 21 C108.24139881 21.36914349 108.24139881 21.36914349 104.83076477 21.36076355 C103.53927521 21.36488754 102.24778564 21.36901154 100.91716003 21.3732605 C99.48293859 21.36264299 98.04871926 21.35173856 96.61450195 21.34057617 C95.10668963 21.3397301 93.59887606 21.34020465 92.09106445 21.34190369 C87.99415745 21.34276586 83.89751294 21.32510437 79.80066705 21.30418181 C75.52054178 21.28545188 71.24041078 21.28366749 66.96025085 21.28010559 C58.85357769 21.27077428 50.74702563 21.24614583 42.64040583 21.21605712 C33.41199204 21.18254688 24.18357252 21.16603561 14.95511305 21.15097082 C-4.02999334 21.1195972 -23.01498694 21.06681562 -42 21 C-41.938125 21.94875 -41.87625 22.8975 -41.8125 23.875 C-41.9053125 25.421875 -41.9053125 25.421875 -42 27 C-45.79163027 29.52775351 -48.80874031 29.22443035 -53.1875 29.125 C-53.93708984 29.11597656 -54.68667969 29.10695312 -55.45898438 29.09765625 C-57.30612654 29.07412578 -59.15310412 29.03825561 -61 29 C-60.34 28.67 -59.68 28.34 -59 28 C-59 26.35 -59 24.7 -59 23 C-55.7 23 -52.4 23 -49 23 C-49 22.34 -49 21.68 -49 21 C-50.918125 21.061875 -50.918125 21.061875 -52.875 21.125 C-55.0546875 21.1953125 -55.0546875 21.1953125 -57 21 C-59.40346379 18.59653621 -59.32083747 17.86099805 -59.375 14.5625 C-59.40335937 13.78003906 -59.43171875 12.99757812 -59.4609375 12.19140625 C-59 10 -59 10 -57.36328125 8.23046875 C-54.34728942 6.66015896 -52.1973459 6.66754334 -48.8125 6.75 C-47.74644531 6.76546875 -46.68039063 6.7809375 -45.58203125 6.796875 C-43 7 -43 7 -42 8 C-42 10.31 -42 12.62 -42 15 C-26.82 15 -11.64 15 4 15 C3.505 11.535 3.505 11.535 3 8 C1.06402968 6.48705712 1.06402968 6.48705712 -1 6 C-0.67 4.02 -0.34 2.04 0 0 Z M-52 13 C-52 13.99 -52 14.98 -52 16 C-51.01 16 -50.02 16 -49 16 C-49 15.01 -49 14.02 -49 13 C-49.99 13 -50.98 13 -52 13 Z " fill="#FAFAFA" transform="translate(167,206)"/>
<path d="M0 0 C0.66209473 -0.00095673 1.32418945 -0.00191345 2.00634766 -0.00289917 C3.40852961 -0.00358076 4.8107147 -0.00172792 6.21289062 0.00244141 C8.36595713 0.00779004 10.51881502 0.0024958 12.671875 -0.00390625 C14.03125046 -0.00324546 15.3906258 -0.00196429 16.75 0 C18.61785156 0.00169189 18.61785156 0.00169189 20.5234375 0.00341797 C23.375 0.1328125 23.375 0.1328125 24.375 1.1328125 C24.59289186 5.24858839 24.56079188 9.36746173 24.56030273 13.48852539 C24.56248734 15.55831514 24.58063491 17.62757043 24.59960938 19.69726562 C24.60154297 20.99470703 24.60347656 22.29214844 24.60546875 23.62890625 C24.60957764 24.82700928 24.61368652 26.0251123 24.61791992 27.25952148 C24.375 30.1328125 24.375 30.1328125 22.375 32.1328125 C19.51757812 32.39160156 19.51757812 32.39160156 15.90625 32.3984375 C14.61332031 32.40101563 13.32039063 32.40359375 11.98828125 32.40625 C11.31361816 32.40206055 10.63895508 32.39787109 9.94384766 32.39355469 C7.88283843 32.3828532 5.82270081 32.39345193 3.76171875 32.40625 C2.46878906 32.40367187 1.17585937 32.40109375 -0.15625 32.3984375 C-1.34798828 32.39618164 -2.53972656 32.39392578 -3.76757812 32.39160156 C-6.625 32.1328125 -6.625 32.1328125 -8.625 30.1328125 C-8.77612305 27.25952148 -8.77612305 27.25952148 -8.63671875 23.62890625 C-8.58966797 22.33146484 -8.54261719 21.03402344 -8.49414062 19.69726562 C-8.46425049 19.02058838 -8.43436035 18.34391113 -8.40356445 17.64672852 C-8.31271923 15.57531121 -8.23807962 13.5037878 -8.16601562 11.43164062 C-7.71721036 0.00699023 -7.71721036 0.00699023 0 0 Z " fill="#028F46" transform="translate(163.625,95.8671875)"/>
<path d="M0 0 C1.98 0 3.96 0 6 0 C6 4.29 6 8.58 6 13 C9.96 13 13.92 13 18 13 C18 8.71 18 4.42 18 0 C19.98 0 21.96 0 24 0 C24.495 6.93 24.495 6.93 25 14 C25.33 13.34 25.66 12.68 26 12 C27.33333333 11.33333333 28.66666667 10.66666667 30 10 C30.7425 9.29875 31.485 8.5975 32.25 7.875 C36.11928018 5.23685443 38.36824064 5.62647102 43 6 C43.99 6.33 44.98 6.66 46 7 C46 6.67 46 6.34 46 6 C48.31 6 50.62 6 53 6 C53.02886984 9.97915159 53.04675406 13.95827653 53.0625 17.9375 C53.07087891 19.07380859 53.07925781 20.21011719 53.08789062 21.38085938 C53.09111328 22.46044922 53.09433594 23.54003906 53.09765625 24.65234375 C53.10289307 25.65257568 53.10812988 26.65280762 53.11352539 27.68334961 C53 30 53 30 52 31 C50.33382885 31.04063832 48.66611905 31.042721 47 31 C46.505 30.01 46.505 30.01 46 29 C45.01 29.66 44.02 30.32 43 31 C36.09741551 31.66799205 36.09741551 31.66799205 32.125 29.25 C28.73908003 25.66490827 28 23.99248805 28 19 C27.79503906 19.61488281 27.59007812 20.22976563 27.37890625 20.86328125 C26.25260417 24.2421875 25.12630208 27.62109375 24 31 C22.02 31 20.04 31 18 31 C18 26.71 18 22.42 18 18 C14.04 18 10.08 18 6 18 C6.020625 19.959375 6.04125 21.91875 6.0625 23.9375 C6.08377188 25.95832876 6.07244053 27.98035801 6 30 C5.67 30.33 5.34 30.66 5 31 C3.35 31 1.7 31 0 31 C0 20.77 0 10.54 0 0 Z M35.75 12.5625 C33.36304276 15.88719044 33.49030342 17.99524119 34 22 C34.91666667 24.08333333 34.91666667 24.08333333 37 25 C40.5 25.66666667 40.5 25.66666667 44 25 C46.61671115 22.2197444 47.01362755 20.68137757 46.9375 16.875 C45.85555795 13.55704439 45.07683177 12.58237063 42 11 C38.09102566 10.61973613 38.09102566 10.61973613 35.75 12.5625 Z M27 14 C27 14.66 27 15.32 27 16 C26.34 16 25.68 16 25 16 C25 16.66 25 17.32 25 18 C25.99 17.67 26.98 17.34 28 17 C27.67 16.01 27.34 15.02 27 14 Z " fill="#FAFAFB" transform="translate(145,371)"/>
<path d="M0 0 C2.31 0 4.62 0 7 0 C7.23187012 0.5347998 7.46374023 1.06959961 7.70263672 1.62060547 C8.75522962 4.0408853 9.81501804 6.45794771 10.875 8.875 C11.42220703 10.13763672 11.42220703 10.13763672 11.98046875 11.42578125 C12.33496094 12.23144531 12.68945312 13.03710938 13.0546875 13.8671875 C13.37937012 14.61081543 13.70405273 15.35444336 14.03857422 16.12060547 C14.96590354 18.17089061 14.96590354 18.17089061 17 20 C17.23710693 19.42967041 17.47421387 18.85934082 17.71850586 18.27172852 C18.78895634 15.70091618 19.86317581 13.1316958 20.9375 10.5625 C21.31068359 9.66466797 21.68386719 8.76683594 22.06835938 7.84179688 C22.42607422 6.98779297 22.78378906 6.13378906 23.15234375 5.25390625 C23.48226318 4.46314697 23.81218262 3.6723877 24.15209961 2.85766602 C25 1 25 1 26 0 C28.33297433 -0.04092937 30.66705225 -0.04241723 33 0 C33.02465622 4.25414623 33.04283899 8.50825498 33.05493164 12.76245117 C33.05997101 14.21070073 33.06680253 15.65894517 33.07543945 17.10717773 C33.08752247 19.18474588 33.09323211 21.26224697 33.09765625 23.33984375 C33.10289307 24.59144287 33.10812988 25.84304199 33.11352539 27.13256836 C33 30 33 30 32 31 C29.5 31.125 29.5 31.125 27 31 C24.53910088 28.53910088 25.22337672 21.03154122 25 18 C23.02 22.29 21.04 26.58 19 31 C17.35 31 15.7 31 14 31 C11 25.375 11 25.375 11 22 C10.34 21.67 9.68 21.34 9 21 C8.67 19.68 8.34 18.36 8 17 C7.67 21.62 7.34 26.24 7 31 C5.02 31 3.04 31 1 31 C0 30 0 30 -0.11352539 27.13256836 C-0.10828857 25.88096924 -0.10305176 24.62937012 -0.09765625 23.33984375 C-0.0962413 22.67537735 -0.09482635 22.01091095 -0.09336853 21.3263092 C-0.08775518 19.19666101 -0.07520054 17.06711661 -0.0625 14.9375 C-0.05748671 13.49674631 -0.05292351 12.05599097 -0.04882812 10.61523438 C-0.03778145 7.07678898 -0.02050792 3.53840461 0 0 Z " fill="#FAFBFA" transform="translate(93,308)"/>
<path d="M0 0 C66 0 132 0 200 0 C200 0.99 200 1.98 200 3 C134 3 68 3 0 3 C0 2.01 0 1.02 0 0 Z " fill="#F3F5F4" transform="translate(90,192)"/>
<path d="M0 0 C0.804375 0.2475 1.60875 0.495 2.4375 0.75 C3.22125 0.275625 4.005 -0.19875 4.8125 -0.6875 C7.4375 -2.25 7.4375 -2.25 10.9375 -2.3125 C14.53225259 -1.22123582 16.11389062 -0.09627311 18.42529297 2.83129883 C20.39301878 6.56124508 19.95119786 10.51437299 19.75 14.625 C19.72744141 15.50414062 19.70488281 16.38328125 19.68164062 17.2890625 C19.62309748 19.44345007 19.53342783 21.5969531 19.4375 23.75 C17.4575 23.75 15.4775 23.75 13.4375 23.75 C13.1075 17.48 12.7775 11.21 12.4375 4.75 C10.1275 5.08 7.8175 5.41 5.4375 5.75 C3.92168343 10.29744972 3.99161033 14.93000171 3.71875 19.6953125 C3.4375 22.75 3.4375 22.75 2.4375 23.75 C0.77132885 23.79063832 -0.89638095 23.792721 -2.5625 23.75 C-2.62308594 22.70199219 -2.68367188 21.65398437 -2.74609375 20.57421875 C-2.83051738 19.19529952 -2.91516447 17.81639395 -3 16.4375 C-3.03931641 15.74720703 -3.07863281 15.05691406 -3.11914062 14.34570312 C-3.31177415 11.27838465 -3.58572717 8.68031848 -4.5625 5.75 C-6.8725 5.42 -9.1825 5.09 -11.5625 4.75 C-11.62308594 6.03777344 -11.68367187 7.32554687 -11.74609375 8.65234375 C-11.83048247 10.33074159 -11.9151313 12.00912636 -12 13.6875 C-12.03931641 14.53763672 -12.07863281 15.38777344 -12.11914062 16.26367188 C-12.16103516 17.07255859 -12.20292969 17.88144531 -12.24609375 18.71484375 C-12.30108032 19.83814087 -12.30108032 19.83814087 -12.35717773 20.98413086 C-12.5625 22.75 -12.5625 22.75 -13.5625 23.75 C-16.0625 23.875 -16.0625 23.875 -18.5625 23.75 C-19.5625 22.75 -19.5625 22.75 -19.67602539 20.43334961 C-19.67078857 19.43311768 -19.66555176 18.43288574 -19.66015625 17.40234375 C-19.65693359 16.32275391 -19.65371094 15.24316406 -19.65039062 14.13085938 C-19.64201172 12.99455078 -19.63363281 11.85824219 -19.625 10.6875 C-19.62048828 9.54732422 -19.61597656 8.40714844 -19.61132812 7.23242188 C-19.59949747 4.40489649 -19.5830141 1.5774736 -19.5625 -1.25 C-16.58398438 -1.20117188 -16.58398438 -1.20117188 -13.60546875 -1.15234375 C-3.36572159 -1.64181541 -3.36572159 -1.64181541 0 0 Z " fill="#FAFBFA" transform="translate(175.5625,315.25)"/>
<path d="M0 0 C4.37575353 0.44029885 6.73752108 3.35542093 9.640625 6.34765625 C10.43119293 7.14459145 10.43119293 7.14459145 11.23773193 7.95762634 C12.91567187 9.65232825 14.58286728 11.35717217 16.25 13.0625 C17.38732745 14.21487745 18.52534066 15.36657852 19.6640625 16.51757812 C22.45071992 19.33727184 25.22778792 22.16610588 28 25 C26.140625 25.578125 26.140625 25.578125 24 26 C21.75 24.75 21.75 24.75 20 23 C20 22.01 20 21.02 20 20 C19.360625 19.731875 18.72125 19.46375 18.0625 19.1875 C16 18 16 18 15 15 C14.34 14.67 13.68 14.34 13 14 C13 13.34 13 12.68 13 12 C11.8553125 11.6596875 11.8553125 11.6596875 10.6875 11.3125 C7.43124404 9.72223546 6.68626801 8.1316406 5 5 C4.34 4.67 3.68 4.34 3 4 C3 4.67546875 3 5.3509375 3 6.046875 C3 12.58181034 2.99840075 19.11668934 2.98413086 25.65161133 C2.96765782 33.51260645 2.95649877 41.37360081 2.94818783 49.23460865 C2.94299014 53.9834824 2.93594305 58.73233791 2.92456055 63.48120117 C2.91358937 68.0894202 2.90769406 72.6976218 2.90512276 77.30585289 C2.90329551 79.04905154 2.89972842 80.79224939 2.89426994 82.53544044 C2.18985722 100.00818426 2.18985722 100.00818426 5 117 C5.66 117.33 6.32 117.66 7 118 C7 118.66 7 119.32 7 120 C7.66 120 8.32 120 9 120 C8.67 120.99 8.34 121.98 8 123 C4.68693159 120.70575673 2.27585422 118.33634841 0 115 C-0.61328125 111.5824585 -0.61328125 111.5824585 -0.75 107.70214844 C-0.77843491 107.00161221 -0.80686981 106.30107597 -0.83616638 105.57931137 C-0.91600517 103.38603645 -0.96379855 101.19440158 -1 99 C-1.01209503 98.32983353 -1.02419006 97.65966705 -1.03665161 96.9691925 C-1.09775656 92.94443995 -1.09933685 88.92148253 -1.07516479 84.89658356 C-1.06205573 82.69087266 -1.05580135 80.48522388 -1.05102539 78.27947998 C-1.03977028 73.60295812 -1.02051674 68.92648919 -1 64.25 C-0.97619187 58.80535979 -0.95588983 53.36074954 -0.94406128 47.91606903 C-0.93768969 45.76710347 -0.92519371 43.61823439 -0.91235352 41.46929932 C-0.88332785 33.59608642 -1.18165144 25.83358855 -2 18 C-2.69289369 21.72430357 -3.11144596 25.21083746 -3 29 C-5.82336216 26.17663784 -5.5008882 23.29631617 -5.6875 19.5 C-5.7280249 18.78328125 -5.7685498 18.0665625 -5.81030273 17.328125 C-6.07386457 11.81131064 -5.85397259 6.4654246 -5 1 C-3 4.75 -3 4.75 -3 7 C-2.34 7 -1.68 7 -1 7 C-1.20625 6.401875 -1.4125 5.80375 -1.625 5.1875 C-2 3 -2 3 0 0 Z " fill="#0E894A" transform="translate(192,29)"/>
<path d="M0 0 C3.58693157 2.36411399 6.80206204 4.91662407 8.75 8.8125 C7.14667209 8.89371924 5.54215974 8.95179134 3.9375 9 C2.59751953 9.05220703 2.59751953 9.05220703 1.23046875 9.10546875 C-1.75163436 8.75325185 -2.2547944 7.92796456 -4.25 5.8125 C-7.69515796 5.10401994 -11.0835715 5.17284566 -14.1875 6.875 C-16.38753629 10.88683088 -16.25 15.33644314 -16.25 19.8125 C-15.26 20.1425 -14.27 20.4725 -13.25 20.8125 C-12.59 21.4725 -11.93 22.1325 -11.25 22.8125 C-7.22895243 23.25928306 -5.11243584 23.4933704 -1.875 20.9375 C-0.22300815 18.91524318 -0.22300815 18.91524318 0.75 16.8125 C-3.21 16.8125 -7.17 16.8125 -11.25 16.8125 C-10.92 15.1625 -10.59 13.5125 -10.25 11.8125 C-4.64 11.8125 0.97 11.8125 6.75 11.8125 C7.55357143 20.51785714 7.55357143 20.51785714 4.0625 24.75 C0.2298734 28.60942818 -2.64950594 29.62883675 -8.0625 30.25 C-13.03058019 30.1182706 -16.49005295 27.91553676 -20.25 24.8125 C-23.90724444 20.92667778 -23.74987389 16.58184755 -23.60546875 11.47265625 C-22.97315391 6.74071771 -20.67317756 4.06317119 -17.1875 1 C-11.89679614 -2.24268946 -5.68419225 -2.0769164 0 0 Z " fill="#FAFAFA" transform="translate(349.25,372.1875)"/>
<path d="M0 0 C1.98 0 3.96 0 6 0 C6.33 0.66 6.66 1.32 7 2 C7.66 1.34 8.32 0.68 9 0 C14.28750449 -0.43340201 17.75717264 -0.51548553 22 3 C25.15045989 6.69364263 25.51984525 10.08477861 25.35546875 14.78125 C24.67926313 19.00196201 22.53714409 21.83389069 19.1875 24.375 C14.98032993 25.57704859 11.11806543 25.37268848 7 24 C7.01160156 24.69867188 7.02320313 25.39734375 7.03515625 26.1171875 C7.04869141 27.48230469 7.04869141 27.48230469 7.0625 28.875 C7.07410156 29.77992188 7.08570313 30.68484375 7.09765625 31.6171875 C7 34 7 34 6 36 C4.02 36 2.04 36 0 36 C0 24.12 0 12.24 0 0 Z M8.25 7.0625 C5.6157814 9.87136458 5.6157814 9.87136458 6.0625 13.6875 C6.72265858 17.04787282 6.72265858 17.04787282 9 19 C13.84306239 19.5889841 13.84306239 19.5889841 18 17.4375 C19.44746494 13.90930422 18.99247239 11.63906544 18 8 C16.2515605 5.97891823 16.2515605 5.97891823 14 5 C10.82708333 4.7 10.82708333 4.7 8.25 7.0625 Z " fill="#FBFBFB" transform="translate(430,377)"/>
<path d="M0 0 C1.98 0 3.96 0 6 0 C7.06546953 3.1964086 7.07427838 5.65747276 7 9 C7.515625 8.649375 8.03125 8.29875 8.5625 7.9375 C12.07330611 6.58718996 14.37866919 7.11055033 18 8 C21.37593285 10.17560117 23.81143182 12.1101405 25 16 C25.63061839 22.41128698 24.77076326 25.7628288 21 31 C17.66432795 33.64553301 14.12750134 33.30018192 10 33 C9.01 32.34 8.02 31.68 7 31 C6.67 31.66 6.34 32.32 6 33 C4.02 33 2.04 33 0 33 C-1.17666109 29.47001672 -1.02013769 26.86362584 -0.87890625 23.14453125 C-0.85529526 22.48289474 -0.83168427 21.82125824 -0.80735779 21.13957214 C-0.73090143 19.03031998 -0.64680043 16.9214518 -0.5625 14.8125 C-0.5092612 13.38087804 -0.45652093 11.94923746 -0.40429688 10.51757812 C-0.27531118 7.01148424 -0.13946876 3.50569429 0 0 Z M7 16 C5.74723914 19.60168748 5.70004852 21.2895886 7.1875 24.8125 C8.80819561 27.04990581 8.80819561 27.04990581 10.875 28 C14.12084444 28 15.55625603 27.1135083 18 25 C19.07978282 21.28824656 19.56771602 19.13543204 17.8125 15.625 C13.81865251 12.04430915 11.0608953 12.59762826 7 16 Z " fill="#FBFBFB" transform="translate(200,306)"/>
<path d="M0 0 C1.98 0 3.96 0 6 0 C6 3.3 6 6.6 6 10 C6.99 9.34 7.98 8.68 9 8 C13.81540624 7.52635348 16.05114955 7.50800347 20.375 9.75 C24.3683504 13.17287177 24.89375926 14.66136663 25.3125 19.9375 C25.16156942 25.02197381 23.26634174 27.66129588 19.8125 31.3125 C15.88974258 33.66615445 13.53989265 33.36612038 9 33 C8.01 32.67 7.02 32.34 6 32 C5.505 32.495 5.505 32.495 5 33 C3.33382885 33.04063832 1.66611905 33.042721 0 33 C-1.49789402 30.00421196 -1.00082655 27.35592581 -0.87890625 24.0234375 C-0.85529526 23.33819 -0.83168427 22.6529425 -0.80735779 21.94692993 C-0.73072143 19.75607584 -0.64669754 17.56557528 -0.5625 15.375 C-0.50927924 13.89064236 -0.45653884 12.40626741 -0.40429688 10.921875 C-0.2751067 7.28103263 -0.13928926 3.64047156 0 0 Z M8.3125 14.5625 C5.66517186 16.88041443 5.66517186 16.88041443 5.5 20.5625 C5.77463495 23.85682298 5.77463495 23.85682298 7.0625 25.9375 C10.19176217 27.653547 12.51763658 27.49748049 16 27 C18.61671115 24.2197444 19.01362755 22.68137757 18.9375 18.875 C17.86223447 15.57751904 17.03356699 14.60600605 14 13 C10.91413567 12.74868977 10.91413567 12.74868977 8.3125 14.5625 Z " fill="#FAFAFA" transform="translate(203,369)"/>
<path d="M0 0 C2.959659 3.04422069 4.00675291 5.4877159 4.4375 9.6875 C4.01615089 14.0063284 3.05761338 17.21147758 0.25 20.5625 C-3.53602892 23.66016003 -7.07810704 23.57650986 -11.8125 23.25 C-14.5 22 -14.5 22 -16.8125 20.25 C-17.575625 19.693125 -18.33875 19.13625 -19.125 18.5625 C-21.5599764 15.22568049 -21.42063792 12.17725212 -20.8125 8.25 C-19.84102501 4.72752953 -18.54199673 1.95596458 -15.875 -0.625 C-10.4742798 -3.57084738 -5.29663179 -3.295682 0 0 Z M-13.8125 6.25 C-13.8125 6.58 -13.8125 6.91 -13.8125 7.25 C-10.1825 7.58 -6.5525 7.91 -2.8125 8.25 C-3.1425 6.93 -3.4725 5.61 -3.8125 4.25 C-8.21083539 2.86766602 -10.13893278 3.52106435 -13.8125 6.25 Z M-13.8125 13.25 C-13.17270151 15.28241727 -13.17270151 15.28241727 -11.8125 17.25 C-9.40367313 18.24843776 -9.40367313 18.24843776 -6.8125 18.25 C-5.8225 17.59 -4.8325 16.93 -3.8125 16.25 C-3.8125 15.59 -3.8125 14.93 -3.8125 14.25 C-7.24765002 13.62542727 -10.30314814 13.25 -13.8125 13.25 Z " fill="#F9FAFA" transform="translate(394.8125,315.75)"/>
<path d="M0 0 C2.31 0 4.62 0 7 0 C7.41894531 1.11890625 7.83789062 2.2378125 8.26953125 3.390625 C9.44556032 6.52946801 10.63260805 9.66391871 11.82421875 12.796875 C12.44560713 14.4478058 13.06669816 16.09884855 13.6875 17.75 C14.00783203 18.58660156 14.32816406 19.42320312 14.65820312 20.28515625 C14.96048828 21.09339844 15.26277344 21.90164063 15.57421875 22.734375 C15.84838623 23.45850586 16.12255371 24.18263672 16.4050293 24.92871094 C17 27 17 27 17 31 C15.02 31 13.04 31 11 31 C10.34 28.69 9.68 26.38 9 24 C5.37 24 1.74 24 -2 24 C-2.66 26.31 -3.32 28.62 -4 31 C-5.98 31 -7.96 31 -10 31 C-9.32018784 25.3473153 -7.47559461 20.2637736 -5.5625 14.9375 C-5.09360352 13.61008789 -5.09360352 13.61008789 -4.61523438 12.25585938 C-3.15390749 8.13757451 -1.67102879 4.03901934 0 0 Z M3 9 C2.32198966 11.90073181 2.32198966 11.90073181 2 15 C2.66 15.66 3.32 16.32 4 17 C3.01 17.495 3.01 17.495 2 18 C1.67 17.34 1.34 16.68 1 16 C0.67 16.99 0.34 17.98 0 19 C2.31 19 4.62 19 7 19 C6.01 15.7 5.02 12.4 4 9 C3.67 9 3.34 9 3 9 Z " fill="#FBFBFB" transform="translate(102,371)"/>
<path d="M0 0 C3.47560767 2.82393124 4.71379152 4.27261783 5.44140625 8.6640625 C5.62892821 13.15249136 5.50302707 16.11970263 3.25 20.0625 C-0.77388054 23.52750824 -3.49803399 24.46320434 -8.96875 24.3203125 C-12.35429158 23.78643864 -14.44180448 22.19273902 -17 20 C-18.80880917 17.0813791 -19.25177184 14.91225018 -19.1875 11.5 C-19.18105469 10.7471875 -19.17460937 9.994375 -19.16796875 9.21875 C-18.99890589 6.98554755 -18.75534927 5.11053473 -18 3 C-11.90392042 -1.74139523 -7.30632976 -3.09614766 0 0 Z M-12 6 C-12 6.66 -12 7.32 -12 8 C-8.37 8 -4.74 8 -1 8 C-2.66348833 4.8464189 -2.66348833 4.8464189 -5.375 4.1875 C-8.29255898 3.97910293 -9.5595659 4.46343038 -12 6 Z M-13 13 C-12.45291273 15.53744315 -12.45291273 15.53744315 -11 18 C-8.08995097 19.08223366 -8.08995097 19.08223366 -5 19 C-4.01 18.34 -3.02 17.68 -2 17 C-2.33 16.01 -2.66 15.02 -3 14 C-4.27875 14.020625 -5.5575 14.04125 -6.875 14.0625 C-10.75 14.125 -10.75 14.125 -13 13 Z M-2 14 C-2 14.33 -2 14.66 -2 15 C-0.35 15 1.3 15 3 15 C3 14.67 3 14.34 3 14 C1.35 14 -0.3 14 -2 14 Z " fill="#F9FAFA" transform="translate(246,315)"/>
<path d="M0 0 C3.28904533 3.19768296 4.12965028 4.91179294 4.5625 9.5 C4.12431189 14.67061966 3.02599015 18.61448015 -0.9375 22.125 C-4.61759023 23.51525631 -7.90176706 23.87280176 -11.75 23.1875 C-15.81391867 21.08028291 -18.05819827 19.41700434 -19.75 15.1875 C-20.1640625 12.609375 -20.1640625 12.609375 -20.375 9.9375 C-20.44976562 9.04546875 -20.52453125 8.1534375 -20.6015625 7.234375 C-20.65054688 6.55890625 -20.69953125 5.8834375 -20.75 5.1875 C-20.09 5.1875 -19.43 5.1875 -18.75 5.1875 C-18.5025 4.589375 -18.255 3.99125 -18 3.375 C-16.23536841 0.28689472 -14.16066664 -1.24823334 -10.875 -2.5625 C-6.58418039 -3.06730231 -3.60501969 -2.37603571 0 0 Z M-12.125 4.625 C-12.66125 5.140625 -13.1975 5.65625 -13.75 6.1875 C-13.42 6.8475 -13.09 7.5075 -12.75 8.1875 C-9.45 7.8575 -6.15 7.5275 -2.75 7.1875 C-3.08 6.1975 -3.41 5.2075 -3.75 4.1875 C-8.10349387 3.01439668 -8.10349387 3.01439668 -12.125 4.625 Z M-13.75 13.1875 C-12.99849977 16.46523504 -12.99849977 16.46523504 -9.75 18.1875 C-6.60778033 17.87243373 -6.60778033 17.87243373 -3.75 17.1875 C-3.42 16.1975 -3.09 15.2075 -2.75 14.1875 C-3.78406673 12.92800951 -3.78406673 12.92800951 -6.03515625 13.08984375 C-6.95167969 13.10144531 -7.86820313 13.11304688 -8.8125 13.125 C-9.73160156 13.13402344 -10.65070313 13.14304687 -11.59765625 13.15234375 C-12.30792969 13.16394531 -13.01820313 13.17554688 -13.75 13.1875 Z " fill="#FAFBFB" transform="translate(148.75,315.8125)"/>
<path d="M0 0 C2.5 0.125 2.5 0.125 3.5 1.125 C3.64115161 3.79558851 3.54247107 6.44932238 3.5 9.125 C4.36625 8.75375 5.2325 8.3825 6.125 8 C10.17709773 6.94945614 11.78344798 7.26672399 15.5 9.125 C17.90753149 11.32393671 19.34051793 13.03048406 19.81884766 16.31323242 C19.89344246 18.86594769 19.84895058 21.38571667 19.75 23.9375 C19.73195313 24.82115234 19.71390625 25.70480469 19.6953125 26.61523438 C19.64838513 28.78562543 19.57664731 30.95545519 19.5 33.125 C17.52 33.125 15.54 33.125 13.5 33.125 C13.17 27.515 12.84 21.905 12.5 16.125 C7.86211914 13.64543682 7.86211914 13.64543682 4.5 15.125 C4.43941406 16.34058594 4.37882812 17.55617188 4.31640625 18.80859375 C4.23201668 20.39324228 4.1473679 21.97787702 4.0625 23.5625 C4.00352539 24.76616211 4.00352539 24.76616211 3.94335938 25.99414062 C3.61328125 32.01171875 3.61328125 32.01171875 2.5 33.125 C0 33.25 0 33.25 -2.5 33.125 C-4.40849948 31.21650052 -3.63059633 27.81021226 -3.6328125 25.28125 C-3.63376923 24.59695923 -3.63472595 23.91266846 -3.63571167 23.2076416 C-3.6363933 21.75838123 -3.63454023 20.30911782 -3.63037109 18.85986328 C-3.62502252 16.63437072 -3.6303166 14.40907999 -3.63671875 12.18359375 C-3.63605797 10.77864539 -3.6347768 9.37369715 -3.6328125 7.96875 C-3.63168457 6.68162109 -3.63055664 5.39449219 -3.62939453 4.06835938 C-3.45814456 0.17290723 -3.45814456 0.17290723 0 0 Z " fill="#FBFBFB" transform="translate(351.5,305.875)"/>
<path d="M0 0 C0 0.66 0 1.32 0 2 C0.66 2 1.32 2 2 2 C4.77755447 6.66155459 4.16046086 10.84888958 3 16 C0.90384726 19.46949419 -1.09373645 21.77231717 -5 23 C-11.049321 23.68482879 -14.17043126 22.40910735 -19 19 C-21.61065555 14.85417491 -21.6848367 10.7608527 -21 6 C-18.69715562 1.63253653 -16.58155015 -1.01293671 -11.875 -2.8125 C-7.56486032 -3.09359607 -3.98347172 -1.53611001 0 0 Z M-13 4 C-15.04777135 6.66210275 -14.99447204 8.15754692 -14.875 11.5625 C-14.2647997 14.97286788 -14.2647997 14.97286788 -12.3125 17.0625 C-9.90288423 18.2918674 -9.90288423 18.2918674 -6.8125 17.3125 C-3.89361993 16.30506878 -3.89361993 16.30506878 -3 14 C-2.65907959 8.67032792 -2.65907959 8.67032792 -5 4 C-8.3006216 2.98442412 -9.67212881 2.8907096 -13 4 Z " fill="#FAFAFB" transform="translate(301,316)"/>
<path d="M0 0 C3.58875 -0.0928125 3.58875 -0.0928125 7.25 -0.1875 C8.37003418 -0.22846802 8.37003418 -0.22846802 9.51269531 -0.27026367 C12.60151105 -0.30889464 14.7280788 -0.14542621 17.46875 1.3203125 C19 3 19 3 19.25 6.0625 C19.1675 7.031875 19.085 8.00125 19 9 C18.93462795 11.25740243 18.93462795 11.25740243 19.6875 14.4375 C20 18 20 18 18.77026367 19.7043457 C16.63803475 21.26492202 15.60390643 21.35196781 12.98828125 21.29296875 C12.30548096 21.28547607 11.62268066 21.2779834 10.91918945 21.27026367 C10.05898193 21.24295166 9.19877441 21.21563965 8.3125 21.1875 C5.569375 21.125625 2.82625 21.06375 0 21 C0 14.07 0 7.14 0 0 Z M8 5 C8 5.99 8 6.98 8 8 C9.32 7.67 10.64 7.34 12 7 C11.67 6.34 11.34 5.68 11 5 C10.01 5 9.02 5 8 5 Z M8 13 C8 13.99 8 14.98 8 16 C9.32 16 10.64 16 12 16 C12 15.01 12 14.02 12 13 C10.68 13 9.36 13 8 13 Z " fill="#FCFCFC" transform="translate(182,240)"/>
<path d="M0 0 C2.578125 -0.04125 5.15625 -0.0825 7.8125 -0.125 C8.62050049 -0.14320801 9.42850098 -0.16141602 10.26098633 -0.18017578 C14.06519761 -0.20976568 15.76428169 -0.15714554 19 2 C19.2578125 3.8125 19.2578125 3.8125 19.125 6 C18.94356018 11.0720677 19.41145643 15.96585057 20 21 C17.36 21 14.72 21 12 21 C11.67 20.01 11.34 19.02 11 18 C10.34 18 9.68 18 9 18 C10 15 10 15 11 14 C10.01 14 9.02 14 8 14 C8 16.31 8 18.62 8 21 C5.36 21 2.72 21 0 21 C0 14.07 0 7.14 0 0 Z M8 5 C8 6.32 8 7.64 8 9 C9.32 8.67 10.64 8.34 12 8 C12 7.34 12 6.68 12 6 C10.68 5.67 9.36 5.34 8 5 Z " fill="#FAFBFA" transform="translate(270,240)"/>
<path d="M0 0 C4.10782331 2.0912555 6.26810866 3.76735075 8 8 C8.77029703 12.00702589 8.87813383 15.54811616 6.7265625 19.10546875 C2.01804114 24.67530499 2.01804114 24.67530499 -1.91796875 25.30859375 C-6.59050541 25.5739874 -9.33946857 25.24931097 -13 22.1875 C-16.14107618 19.24274108 -16.92115172 17.04473972 -17.25 12.6875 C-16.9087792 7.65449324 -15.68809741 4.48949771 -11.875 1.125 C-7.83066162 -0.45756719 -4.28553904 -0.68659164 0 0 Z M-8.375 5.875 C-10.65287713 8.85376241 -10.39606846 11.27943093 -10.3359375 14.94140625 C-10.16989352 17.21943362 -10.16989352 17.21943362 -8 19 C-4.54213985 19.50007794 -4.54213985 19.50007794 -1 19 C1.675255 16.75623774 1.95868973 15.40484065 2.3125 11.9375 C2.20953488 8.81210321 2.20953488 8.81210321 0 6 C-3.24193891 5.01332294 -5.17160276 4.69480102 -8.375 5.875 Z " fill="#F9FAF9" transform="translate(262,377)"/>
<path d="M0 0 C4.40600482 3.52480386 6.43211054 7.08457907 7.1875 12.75 C5.61442893 16.84450078 3.19360329 19.85568597 -0.0625 22.75 C-4.05133908 24.20048694 -7.6223021 24.41281312 -11.8125 23.75 C-16.15204555 21.48588928 -17.9515013 18.43179148 -19.4375 13.90625 C-20.08196409 10.20058148 -19.36167762 7.14164615 -17.8125 3.75 C-13.29378276 -1.93483781 -6.50578192 -2.89145863 0 0 Z M-11.0625 5.3125 C-13.43717485 8.62008283 -13.24742767 10.76316304 -12.8125 14.75 C-11.22308594 17.890914 -11.22308594 17.890914 -8.9375 18.1484375 C-8.23625 18.14070313 -7.535 18.13296875 -6.8125 18.125 C-5.760625 18.13660156 -5.760625 18.13660156 -4.6875 18.1484375 C-2.40191406 17.890914 -2.40191406 17.890914 -0.8125 14.75 C-0.37757233 10.76316304 -0.18782515 8.62008283 -2.5625 5.3125 C-5.77818649 3.07938438 -7.84681351 3.07938438 -11.0625 5.3125 Z " fill="#FAFAFA" transform="translate(393.8125,378.25)"/>
<path d="M0 0 C3.0625 1.375 3.0625 1.375 5 3 C5 3.66 5 4.32 5 5 C5.66 5 6.32 5 7 5 C8.50336183 9.69800573 8.83604335 14.24829013 6.6875 18.75 C4.24550447 22.00599404 2.91585593 23.69471469 -1 25 C-7.83680424 25.67247255 -7.83680424 25.67247255 -10.75 23.98828125 C-12.24308218 22.74529033 -13.62626043 21.37373957 -15 20 C-15.55816406 19.55914062 -16.11632812 19.11828125 -16.69140625 18.6640625 C-18 17 -18 17 -18.1015625 14.51171875 C-17.11014409 8.6363457 -16.03318284 4.54862999 -11.06640625 0.9609375 C-7.36354704 -0.76099703 -3.96608804 -0.76356461 0 0 Z M-8.125 6.125 C-10.69889363 8.69889363 -10.92785942 10.39297125 -11 14 C-10.18792354 16.96493065 -10.18792354 16.96493065 -8 19 C-4.5 19.83333333 -4.5 19.83333333 -1 19 C1.27808606 17.03723095 1.27808606 17.03723095 2 14 C1.5140878 10.29886787 1.5140878 10.29886787 0 7 C-3.32184215 4.78543856 -4.56512546 4.24036054 -8.125 6.125 Z " fill="#FBFBFB" transform="translate(289,377)"/>
<path d="M0 0 C2.89683868 2.2015974 4.39297231 3.78594462 6 7 C6.54724071 12.69130337 5.59333707 15.56117185 2 20 C-1.95032325 21.97516163 -6.69362748 21.42939264 -11 21 C-14.79214867 19.14262106 -16.22968514 17.12333306 -17.625 13.25 C-18.37551927 9.61339297 -17.65882212 7.70810331 -15.75 4.5625 C-11.77262 -1.14660443 -6.58421705 -0.87409519 0 0 Z M-8 6 C-8 8.97 -8 11.94 -8 15 C-7.01 15.33 -6.02 15.66 -5 16 C-4.34 15.67 -3.68 15.34 -3 15 C-2.00555932 11.65506316 -1.89651732 9.31044803 -3 6 C-4.65 6 -6.3 6 -8 6 Z " fill="#FBFBFB" transform="translate(238,240)"/>
<path d="M0 0 C2.64 0 5.28 0 8 0 C7.67 2.31 7.34 4.62 7 7 C8.98 7 10.96 7 13 7 C12.814375 6.030625 12.62875 5.06125 12.4375 4.0625 C12.293125 3.051875 12.14875 2.04125 12 1 C13 0 13 0 14.84765625 -0.09765625 C16.8984375 -0.06510417 18.94921875 -0.03255208 21 0 C22.46463311 2.92926622 22.13182708 5.55256781 22.125 8.8125 C22.12886719 10.64748047 22.12886719 10.64748047 22.1328125 12.51953125 C22.01945473 15.49017156 21.69145246 18.1189481 21 21 C18.36 21 15.72 21 13 21 C12.67 18.69 12.34 16.38 12 14 C10.35 13.67 8.7 13.34 7 13 C7 15.64 7 18.28 7 21 C4.69 21 2.38 21 0 21 C0 14.07 0 7.14 0 0 Z " fill="#FBFBFB" transform="translate(134,240)"/>
<path d="M0 0 C2.4375 0.1875 2.4375 0.1875 3.4375 1.1875 C3.67451239 4.04627909 3.85969182 6.88633297 4 9.75 C4.04318359 10.55630859 4.08636719 11.36261719 4.13085938 12.19335938 C4.23725262 14.19118805 4.33790888 16.1893207 4.4375 18.1875 C6.77044775 18.22991723 9.10452567 18.22842937 11.4375 18.1875 C13.55675604 16.06824396 12.85581017 11.5678907 13 8.625 C13.04318359 7.81869141 13.08636719 7.01238281 13.13085938 6.18164062 C13.23725262 4.18381195 13.33790888 2.1856793 13.4375 0.1875 C15.4175 0.1875 17.3975 0.1875 19.4375 0.1875 C19.4375 8.4375 19.4375 16.6875 19.4375 25.1875 C16.4375 25.1875 13.4375 25.1875 10.4375 25.1875 C8.766875 25.31125 8.766875 25.31125 7.0625 25.4375 C2.73277273 25.13889812 1.35279588 24.35267839 -1.5625 21.1875 C-3.26047641 16.939516 -3.95614756 12.98623409 -4.3125 8.4375 C-4.41046875 7.30828125 -4.5084375 6.1790625 -4.609375 5.015625 C-4.54701563 1.25327644 -3.7846632 0.27692658 0 0 Z " fill="#FBFCFB" transform="translate(405.5625,376.8125)"/>
<path d="M0 0 C2.97696645 1.65950045 3.35934534 2.77526498 5 6 C5.78993872 10.45807002 5.51407792 13.87837545 3.625 18 C2 20 2 20 0 21 C-5.20460087 21.51124099 -9.56445931 21.86132441 -14.125 19.125 C-17.28613364 15.54238188 -17.33030825 12.89928405 -17.29296875 8.26171875 C-16.86344199 4.9457722 -15.39075646 3.25012373 -13 1 C-9.00797301 -0.99601349 -4.3305292 -0.63647547 0 0 Z M-8 6 C-9.35439668 8.70879335 -9.06501451 11.00933268 -9 14 C-7.11683841 15.10836423 -7.11683841 15.10836423 -5 16 C-4.34 15.67 -3.68 15.34 -3 15 C-3 12.36 -3 9.72 -3 7 C-4.65 6.67 -6.3 6.34 -8 6 Z " fill="#FBFBFB" transform="translate(262,240)"/>
<path d="M0 0 C1.37478516 0.01740234 1.37478516 0.01740234 2.77734375 0.03515625 C3.69644531 0.04417969 4.61554688 0.05320313 5.5625 0.0625 C6.27277344 0.07410156 6.98304688 0.08570313 7.71484375 0.09765625 C8.88979518 3.03190996 10.05335227 5.97055138 11.21484375 8.91015625 C11.54871094 9.74353516 11.88257813 10.57691406 12.2265625 11.43554688 C12.54238281 12.23798828 12.85820312 13.04042969 13.18359375 13.8671875 C13.62348633 14.97477417 13.62348633 14.97477417 14.07226562 16.10473633 C14.71484375 18.09765625 14.71484375 18.09765625 14.71484375 21.09765625 C11.74484375 21.09765625 8.77484375 21.09765625 5.71484375 21.09765625 C5.71484375 20.10765625 5.71484375 19.11765625 5.71484375 18.09765625 C3.07484375 18.09765625 0.43484375 18.09765625 -2.28515625 18.09765625 C-2.28515625 19.08765625 -2.28515625 20.07765625 -2.28515625 21.09765625 C-4.92515625 21.09765625 -7.56515625 21.09765625 -10.28515625 21.09765625 C-9.58705325 16.59489193 -7.99840149 12.54187454 -6.28515625 8.34765625 C-5.87523437 7.32091797 -5.87523437 7.32091797 -5.45703125 6.2734375 C-2.97415457 0.12710062 -2.97415457 0.12710062 0 0 Z M1.71484375 8.09765625 C1.38484375 9.41765625 1.05484375 10.73765625 0.71484375 12.09765625 C1.70484375 11.76765625 2.69484375 11.43765625 3.71484375 11.09765625 C3.05484375 10.10765625 2.39484375 9.11765625 1.71484375 8.09765625 Z " fill="#FAFAFA" transform="translate(166.28515625,239.90234375)"/>
<path d="M0 0 C3.3 0 6.6 0 10 0 C11.3376655 3.12321008 12.67029736 6.24840189 14 9.375 C14.3815625 10.26445312 14.763125 11.15390625 15.15625 12.0703125 C15.5171875 12.92109375 15.878125 13.771875 16.25 14.6484375 C16.58515625 15.43395996 16.9203125 16.21948242 17.265625 17.02880859 C18 19 18 19 18 21 C15.03 21 12.06 21 9 21 C9 20.01 9 19.02 9 18 C6.36 18 3.72 18 1 18 C0.67 18.99 0.34 19.98 0 21 C-2.64 21 -5.28 21 -8 21 C-6.48728707 16.28562282 -4.73227046 11.71041415 -2.875 7.125 C-2.59785156 6.43664062 -2.32070312 5.74828125 -2.03515625 5.0390625 C-1.35835767 3.35873499 -0.67940197 1.67927658 0 0 Z M4 9 C4 9.99 4 10.98 4 12 C4.66 12 5.32 12 6 12 C6 11.01 6 10.02 6 9 C5.34 9 4.68 9 4 9 Z " fill="#FAFAFA" transform="translate(98,240)"/>
<path d="M0 0 C1.98 0 3.96 0 6 0 C6 1.98 6 3.96 6 6 C7.98 6 9.96 6 12 6 C12 7.65 12 9.3 12 11 C10.35 11.33 8.7 11.66 7 12 C6.67 16.29 6.34 20.58 6 25 C7.98 25 9.96 25 12 25 C12.042721 26.66611905 12.04063832 28.33382885 12 30 C11 31 11 31 8.1875 31.1875 C5.11091241 31.00652426 3.52990252 30.68660168 1 29 C-0.93096415 25.1380717 -0.41789673 20.34833457 -0.62109375 16.08984375 C-0.80865234 14.56037109 -0.80865234 14.56037109 -1 13 C-1.66 12.67 -2.32 12.34 -3 12 C-3 10.02 -3 8.04 -3 6 C-2.01 6 -1.02 6 0 6 C0 4.02 0 2.04 0 0 Z " fill="#FBFBFB" transform="translate(334,308)"/>
<path d="M0 0 C1.98 0 3.96 0 6 0 C6 1.65 6 3.3 6 5 C7.98 5 9.96 5 12 5 C12 6.65 12 8.3 12 10 C10.02 10 8.04 10 6 10 C6 14.62 6 19.24 6 24 C8.31 24 10.62 24 13 24 C12.34 25.98 11.68 27.96 11 30 C9.54077307 29.88590407 8.08259402 29.75834456 6.625 29.625 C5.81289062 29.55539062 5.00078125 29.48578125 4.1640625 29.4140625 C2 29 2 29 0 27 C-0.14517744 24.0906442 -0.18630796 21.280054 -0.125 18.375 C-0.11597656 17.57320313 -0.10695312 16.77140625 -0.09765625 15.9453125 C-0.07406223 13.96341477 -0.03819065 11.98167019 0 10 C-1.32 9.67 -2.64 9.34 -4 9 C-3.67 8.34 -3.34 7.68 -3 7 C-3.66 6.67 -4.32 6.34 -5 6 C-4.34 6 -3.68 6 -3 6 C-2.67 5.34 -2.34 4.68 -2 4 C-1.34 4.33 -0.68 4.66 0 5 C0 3.35 0 1.7 0 0 Z " fill="#F9FAFA" transform="translate(232,372)"/>
<path d="M0 0 C1.99954746 -0.04254356 4.00041636 -0.04080783 6 0 C7 1 7 1 7.11352539 3.50024414 C7.10828857 4.58426514 7.10305176 5.66828613 7.09765625 6.78515625 C7.09443359 7.95498047 7.09121094 9.12480469 7.08789062 10.33007812 C7.07951172 11.56177734 7.07113281 12.79347656 7.0625 14.0625 C7.05798828 15.29806641 7.05347656 16.53363281 7.04882812 17.80664062 C7.03699608 20.87114117 7.02051173 23.93554721 7 27 C6.34 27 5.68 27 5 27 C5.33773437 27.50015625 5.67546875 28.0003125 6.0234375 28.515625 C7.38300045 31.97435314 6.96695689 35.13209607 6.625 38.75 C6.56828125 39.44738281 6.5115625 40.14476562 6.453125 40.86328125 C6.31232128 42.57639312 6.15754028 44.28834611 6 46 C7.485 46.495 7.485 46.495 9 47 C7.0625 47.5625 7.0625 47.5625 5 48 C4 47 4 47 3.87974548 45.17137146 C3.88196609 44.37417191 3.88418671 43.57697235 3.88647461 42.75561523 C3.88655014 41.85475693 3.88662567 40.95389862 3.88670349 40.02574158 C3.89186478 39.04658279 3.89702606 38.06742401 3.90234375 37.05859375 C3.9037587 36.06118668 3.90517365 35.0637796 3.90663147 34.03614807 C3.91224886 30.83656876 3.92480429 27.63705831 3.9375 24.4375 C3.94251276 22.27408955 3.94707605 20.11067801 3.95117188 17.94726562 C3.96222393 12.63148675 3.97897896 7.31574829 4 2 C3.01 2 2.02 2 1 2 C1 16.85 1 31.7 1 47 C-3 47 -3 47 -5.29003906 45.1640625 C-6.10698242 44.32617188 -6.92392578 43.48828125 -7.765625 42.625 C-8.65507812 41.72265625 -9.54453125 40.8203125 -10.4609375 39.890625 C-11.39084511 38.92729576 -12.3205298 37.96375129 -13.25 37 C-14.194385 36.03554925 -15.13968755 35.07199606 -16.0859375 34.109375 C-18.39981814 31.7482723 -20.7038764 29.37835393 -23 27 C-20 27 -20 27 -18.421875 28.25341797 C-17.87015625 28.82721191 -17.3184375 29.40100586 -16.75 29.9921875 C-16.1415625 30.61480469 -15.533125 31.23742187 -14.90625 31.87890625 C-14.2771875 32.53761719 -13.648125 33.19632813 -13 33.875 C-11.7522381 35.16622902 -10.50231844 36.45537724 -9.25 37.7421875 C-8.69828125 38.3182373 -8.1465625 38.89428711 -7.578125 39.48779297 C-5.86921765 41.21369277 -5.86921765 41.21369277 -3 43 C-3 43.66 -3 44.32 -3 45 C-2.01 44.505 -2.01 44.505 -1 44 C-1.00785522 42.10725342 -1.00785522 42.10725342 -1.01586914 40.17626953 C-1.03393458 35.50602932 -1.04543769 30.83579221 -1.05493164 26.16552734 C-1.05996831 24.14208457 -1.06679789 22.11864544 -1.07543945 20.09521484 C-1.08753412 17.19107157 -1.09323488 14.28697631 -1.09765625 11.3828125 C-1.10281754 10.47443634 -1.10797882 9.56606018 -1.11329651 8.63015747 C-1.11340981 7.36907669 -1.11340981 7.36907669 -1.11352539 6.08251953 C-1.115746 5.34083527 -1.11796661 4.599151 -1.12025452 3.83499146 C-1 2 -1 2 0 0 Z " fill="#096C45" transform="translate(224,126)"/>
<path d="M0 0 C0 1.65 0 3.3 0 5 C-0.99 5.33 -1.98 5.66 -3 6 C-3.33 6.99 -3.66 7.98 -4 9 C-2.68 9 -1.36 9 0 9 C0 10.65 0 12.3 0 14 C-0.99 14.33 -1.98 14.66 -3 15 C-3.33 21.27 -3.66 27.54 -4 34 C-5.98 34 -7.96 34 -10 34 C-10.33 27.73 -10.66 21.46 -11 15 C-11.66 15 -12.32 15 -13 15 C-13 13.02 -13 11.04 -13 9 C-12.01 9 -11.02 9 -10 9 C-10.103125 8.2575 -10.20625 7.515 -10.3125 6.75 C-10 4 -10 4 -7.8125 1.6875 C-4.82698671 -0.10380798 -3.4027576 -0.38888658 0 0 Z " fill="#F9FAFA" transform="translate(319,305)"/>
<path d="M0 0 C6.27 0 12.54 0 19 0 C19 1.98 19 3.96 19 6 C17.35 6 15.7 6 14 6 C14 10.95 14 15.9 14 21 C11.36 21 8.72 21 6 21 C4.52806688 18.05613377 5.15063827 15.62609964 5.4375 12.375 C5.53933594 11.18648437 5.64117187 9.99796875 5.74609375 8.7734375 C5.82988281 7.85820312 5.91367188 6.94296875 6 6 C4.02 6.33 2.04 6.66 0 7 C0 4.69 0 2.38 0 0 Z " fill="#F9FBFB" transform="translate(202,240)"/>
<path d="M0 0 C2.31 0 4.62 0 7 0 C9.16803239 2.16803239 8.27788469 6.87962169 8.3125 9.875 C8.34150391 10.70386719 8.37050781 11.53273437 8.40039062 12.38671875 C8.46368199 18.41400382 8.46368199 18.41400382 6.37109375 21.05859375 C3.35357344 22.25665371 0.98950982 22.29313619 -2.25 22.1875 C-3.86648437 22.14689453 -3.86648437 22.14689453 -5.515625 22.10546875 C-6.74539062 22.05326172 -6.74539062 22.05326172 -8 22 C-8 20.02 -8 18.04 -8 16 C-5.36 16 -2.72 16 0 16 C0 10.72 0 5.44 0 0 Z " fill="#FBFBFB" transform="translate(98,213)"/>
<path d="M0 0 C4.66666667 0 9.33333333 0 14 0 C14 1.98 14 3.96 14 6 C12.02 6.66 10.04 7.32 8 8 C7.93941406 9.14339844 7.87882812 10.28679687 7.81640625 11.46484375 C7.73201572 12.95574305 7.64736698 14.44662775 7.5625 15.9375 C7.50352539 17.06961914 7.50352539 17.06961914 7.44335938 18.22460938 C7.11328125 23.88671875 7.11328125 23.88671875 6 25 C3.5 25.125 3.5 25.125 1 25 C0 24 0 24 -0.11352539 21.68334961 C-0.10828857 20.68311768 -0.10305176 19.68288574 -0.09765625 18.65234375 C-0.09443359 17.57275391 -0.09121094 16.49316406 -0.08789062 15.38085938 C-0.07951172 14.24455078 -0.07113281 13.10824219 -0.0625 11.9375 C-0.05798828 10.79732422 -0.05347656 9.65714844 -0.04882812 8.48242188 C-0.03699747 5.65489649 -0.0205141 2.8274736 0 0 Z " fill="#F9FAFA" transform="translate(300,377)"/>
<path d="M0 0 C2.64 0 5.28 0 8 0 C8 4.95 8 9.9 8 15 C10.31 15 12.62 15 15 15 C15 16.98 15 18.96 15 21 C10.05 21 5.1 21 0 21 C0 14.07 0 7.14 0 0 Z " fill="#FBFBFA" transform="translate(117,240)"/>
<path d="M0 0 C-0.1875 2.875 -0.1875 2.875 -1 6 C-3.5 7.25 -3.5 7.25 -6 8 C-7.52106634 11.04213267 -7.37429338 14.28047572 -7.5625 17.625 C-7.60568359 18.33140625 -7.64886719 19.0378125 -7.69335938 19.765625 C-7.79944751 21.51018537 -7.90022889 23.25506697 -8 25 C-9.98 25 -11.96 25 -14 25 C-14 16.75 -14 8.5 -14 0 C-11.33333333 0 -8.66666667 0 -6 0 C-3 -1 -3 -1 0 0 Z " fill="#FBFBFB" transform="translate(268,314)"/>
<path d="M0 0 C1.98 0 3.96 0 6 0 C6 10.89 6 21.78 6 33 C3.69 33 1.38 33 -1 33 C-0.67 22.11 -0.34 11.22 0 0 Z " fill="#FCFCFC" transform="translate(123,369)"/>
<path d="M0 0 C1.134375 0.020625 2.26875 0.04125 3.4375 0.0625 C3.4375 0.7225 3.4375 1.3825 3.4375 2.0625 C1.1275 2.0625 -1.1825 2.0625 -3.5625 2.0625 C-3.5625 11.3025 -3.5625 20.5425 -3.5625 30.0625 C0.871875 29.918125 5.30625 29.77375 9.875 29.625 C11.27548584 29.58189697 12.67597168 29.53879395 14.11889648 29.49438477 C15.75967163 29.4372229 15.75967163 29.4372229 17.43359375 29.37890625 C18.55950928 29.34224854 19.6854248 29.30559082 20.84545898 29.26782227 C23.36603441 29.35031955 23.36603441 29.35031955 24.4375 28.0625 C24.5366918 26.45166255 24.5682982 24.83654356 24.5703125 23.22265625 C24.57160156 22.24232422 24.57289063 21.26199219 24.57421875 20.25195312 C24.56841797 18.70411133 24.56841797 18.70411133 24.5625 17.125 C24.56636719 16.09697266 24.57023437 15.06894531 24.57421875 14.00976562 C24.57292969 13.02814453 24.57164062 12.04652344 24.5703125 11.03515625 C24.56918457 10.13031494 24.56805664 9.22547363 24.56689453 8.29321289 C24.58246576 6.02354141 24.58246576 6.02354141 23.4375 4.0625 C21.54216658 3.59726937 21.54216658 3.59726937 19.375 3.4375 C18.075625 3.31375 16.77625 3.19 15.4375 3.0625 C18.10724142 0.49954824 19.33982794 0.06912183 23.125 -0.1875 C26.4375 0.0625 26.4375 0.0625 27.4375 1.0625 C27.65539186 5.17827589 27.62329188 9.29714923 27.62280273 13.41821289 C27.62498734 15.48800264 27.64313491 17.55725793 27.66210938 19.62695312 C27.66404297 20.92439453 27.66597656 22.22183594 27.66796875 23.55859375 C27.67207764 24.75669678 27.67618652 25.9547998 27.68041992 27.18920898 C27.4375 30.0625 27.4375 30.0625 25.4375 32.0625 C22.58007812 32.32128906 22.58007812 32.32128906 18.96875 32.328125 C17.67582031 32.33070313 16.38289063 32.33328125 15.05078125 32.3359375 C14.37611816 32.33174805 13.70145508 32.32755859 13.00634766 32.32324219 C10.94533843 32.3125407 8.88520081 32.32313943 6.82421875 32.3359375 C5.53128906 32.33335937 4.23835937 32.33078125 2.90625 32.328125 C1.71451172 32.32586914 0.52277344 32.32361328 -0.70507812 32.32128906 C-3.5625 32.0625 -3.5625 32.0625 -5.5625 30.0625 C-5.71362305 27.18920898 -5.71362305 27.18920898 -5.57421875 23.55859375 C-5.52716797 22.26115234 -5.48011719 20.96371094 -5.43164062 19.62695312 C-5.40175049 18.95027588 -5.37186035 18.27359863 -5.34106445 17.57641602 C-5.25021923 15.50499871 -5.17557962 13.4334753 -5.10351562 11.36132812 C-4.66040983 0.08176158 -4.66040983 0.08176158 0 0 Z " fill="#116F41" transform="translate(160.5625,95.9375)"/>
<path d="M0 0 C4.66666667 0 9.33333333 0 14 0 C13.67 1.98 13.34 3.96 13 6 C11.02 6.33 9.04 6.66 7 7 C6.93941406 8.21558594 6.87882812 9.43117188 6.81640625 10.68359375 C6.73201668 12.26824228 6.6473679 13.85287702 6.5625 15.4375 C6.50352539 16.64116211 6.50352539 16.64116211 6.44335938 17.86914062 C6.11328125 23.88671875 6.11328125 23.88671875 5 25 C3.35 25 1.7 25 0 25 C0 16.75 0 8.5 0 0 Z " fill="#FAFAFA" transform="translate(360,377)"/>
<path d="M0 0 C0.33 0.66 0.66 1.32 1 2 C0.67 2.99 0.34 3.98 0 5 C-0.66 5 -1.32 5 -2 5 C-2 28.43 -2 51.86 -2 76 C-0.68 76 0.64 76 2 76 C2.66 74.35 3.32 72.7 4 71 C4.99 71 5.98 71 7 71 C7.33 69.68 7.66 68.36 8 67 C8.61875 66.938125 9.2375 66.87625 9.875 66.8125 C12.27761141 66.171081 12.27761141 66.171081 13.25 63.4375 C13.4975 62.633125 13.745 61.82875 14 61 C14.99 61 15.98 61 17 61 C17.2475 60.2575 17.495 59.515 17.75 58.75 C19.1342469 55.70465682 20.39355077 54.08515938 23 52 C25.75 51.25 25.75 51.25 28 51 C22.93152226 57.105592 17.46794183 62.74949374 11.875 68.375 C10.98167969 69.28894531 10.08835938 70.20289063 9.16796875 71.14453125 C8.30558594 72.01207031 7.44320312 72.87960938 6.5546875 73.7734375 C5.77593262 74.56153809 4.99717773 75.34963867 4.19482422 76.16162109 C2.02711063 77.97729221 0.76249093 78.62018699 -2 79 C-3.47229464 76.05541072 -3.14360243 73.42240707 -3.16113281 70.13525391 C-3.16609772 69.42937637 -3.17106262 68.72349884 -3.17617798 67.99623108 C-3.19080721 65.65633171 -3.19760284 63.31650013 -3.203125 60.9765625 C-3.20887584 59.35232542 -3.21463358 57.72808836 -3.22039795 56.10385132 C-3.23091011 52.69585859 -3.23675136 49.28788947 -3.24023438 45.87988281 C-3.24571955 41.51277053 -3.26974696 37.14596996 -3.29820633 32.77895546 C-3.3168294 29.42293384 -3.32203813 26.06698736 -3.32357025 22.71091843 C-3.32659808 21.10095897 -3.33463102 19.49100088 -3.34775543 17.88109207 C-3.36480947 15.62833184 -3.36293767 13.37633374 -3.35644531 11.12353516 C-3.36009094 9.84161285 -3.36373657 8.55969055 -3.36749268 7.23892212 C-2.98024696 3.8259052 -2.33319704 2.45486328 0 0 Z " fill="#1F7348" transform="translate(121,95)"/>
<path d="M0 0 C2.64 0 5.28 0 8 0 C8 6.93 8 13.86 8 21 C5.36 21 2.72 21 0 21 C0 14.07 0 7.14 0 0 Z " fill="#FCFCFC" transform="translate(282,206)"/>
<path d="M0 0 C0.33 0 0.66 0 1 0 C1 22.44 1 44.88 1 68 C0.34 67.67 -0.32 67.34 -1 67 C-0.99476318 65.94200195 -0.98952637 64.88400391 -0.98413086 63.79394531 C-0.96582798 59.81299712 -0.95447699 55.83205253 -0.94506836 51.85107422 C-0.94008528 50.13850272 -0.9332964 48.42593537 -0.92456055 46.71337891 C-0.87675238 37.08987658 -0.93511837 27.58033306 -2 18 C-2.69289369 21.72430357 -3.11144596 25.21083746 -3 29 C-5.82336216 26.17663784 -5.5008882 23.29631617 -5.6875 19.5 C-5.7280249 18.78328125 -5.7685498 18.0665625 -5.81030273 17.328125 C-6.07386457 11.81131064 -5.85397259 6.4654246 -5 1 C-3 4.75 -3 4.75 -3 7 C-2.34 7 -1.68 7 -1 7 C-1.20625 6.401875 -1.4125 5.80375 -1.625 5.1875 C-2 3 -2 3 0 0 Z " fill="#0D5E32" transform="translate(192,29)"/>
<path d="M0 0 C0.66 0 1.32 0 2 0 C2.96415984 5.01212468 3.27821165 9.92706323 3.5 15.01171875 C3.5833156 16.75586022 3.66664947 18.50000082 3.75 20.24414062 C3.87619286 22.97626534 4.00095122 25.70845095 4.125 28.44067383 C4.24649208 31.08953332 4.37305069 33.73811608 4.5 36.38671875 C4.55317383 37.61487556 4.55317383 37.61487556 4.60742188 38.86784363 C4.76435818 42.11956135 4.96504618 44.89513853 6 48 C6.66 48.33 7.32 48.66 8 49 C8 49.66 8 50.32 8 51 C8.66 51 9.32 51 10 51 C9.67 51.99 9.34 52.98 9 54 C4.73449538 51.04621092 1.52427208 48.11338693 0.24609375 42.9609375 C0.01369707 39.57458585 -0.0699143 36.254155 -0.03076172 32.86230469 C0.00711934 29.33756282 -0.0148565 25.81382372 -0.03515625 22.2890625 C-0.06989947 14.85897708 -0.04716339 7.43004837 0 0 Z " fill="#137744" transform="translate(191,98)"/>
<path d="M0 0 C0 3.63 0 7.26 0 11 C-0.99 10.67 -1.98 10.34 -3 10 C-3.99 10 -4.98 10 -6 10 C-6.804375 10.804375 -7.60875 11.60875 -8.4375 12.4375 C-11 15 -11 15 -12.86669922 15.38720703 C-15.9515772 16.27334158 -17.45191338 18.09771802 -19.6953125 20.3671875 C-20.57574219 21.25277344 -21.45617187 22.13835938 -22.36328125 23.05078125 C-23.27464844 23.98277344 -24.18601563 24.91476563 -25.125 25.875 C-26.04410156 26.79925781 -26.96320313 27.72351563 -27.91015625 28.67578125 C-32.80007297 33.55124388 -32.80007297 33.55124388 -37 39 C-37.66 39 -38.32 39 -39 39 C-39 38.34 -39 37.68 -39 37 C-38.34 37 -37.68 37 -37 37 C-36.73650757 36.41184509 -36.47301514 35.82369019 -36.20153809 35.2177124 C-34.94762429 32.90332869 -33.62938424 31.37571885 -31.77539062 29.51660156 C-31.12131226 28.85621887 -30.46723389 28.19583618 -29.79333496 27.51544189 C-29.08809692 26.81425232 -28.38285889 26.11306274 -27.65625 25.390625 C-26.93135376 24.66381531 -26.20645752 23.93700562 -25.45959473 23.18817139 C-23.92880989 21.65602721 -22.39550303 20.12639925 -20.85986328 18.59912109 C-18.5018923 16.25188369 -16.15480454 13.89414222 -13.80859375 11.53515625 C-12.32095364 10.04883718 -10.83269356 8.56313831 -9.34375 7.078125 C-8.63851196 6.3688385 -7.93327393 5.659552 -7.20666504 4.92877197 C-6.55258667 4.28099792 -5.8985083 3.63322388 -5.22460938 2.96582031 C-4.36095764 2.10455536 -4.36095764 2.10455536 -3.4798584 1.22589111 C-2 0 -2 0 0 0 Z " fill="#177C4B" transform="translate(187,29)"/>
<path d="M0 0 C0.99 0.33 1.98 0.66 3 1 C2.18740723 1.61480225 1.37481445 2.22960449 0.53759766 2.86303711 C-2.6243456 6.04958395 -2.59330909 8.98562242 -2.64199829 13.32484436 C-2.62865448 14.27080978 -2.61531067 15.21677521 -2.6015625 16.19140625 C-2.61357193 17.66479713 -2.61357193 17.66479713 -2.62582397 19.16795349 C-2.6488766 22.29989055 -2.63943194 25.4305281 -2.625 28.5625 C-2.62115389 31.69779838 -2.62457101 34.83252441 -2.64559937 37.96775818 C-2.65769897 39.91650463 -2.65500232 41.86541183 -2.63589478 43.81410217 C-2.63955048 44.69859543 -2.64320618 45.58308868 -2.64697266 46.49438477 C-2.64299469 47.26984146 -2.63901672 48.04529816 -2.63491821 48.84425354 C-3.09171154 51.54154122 -4.23689302 52.95003181 -6 55 C-5.9837009 48.13099656 -5.92883628 41.26306927 -5.84741211 34.39453125 C-5.82424463 32.05899026 -5.80983936 29.72334498 -5.80444336 27.38769531 C-5.79514514 24.02603253 -5.75413233 20.6660073 -5.70703125 17.3046875 C-5.7109639 16.26384003 -5.71489655 15.22299255 -5.71894836 14.15060425 C-5.55648106 6.04039961 -5.55648106 6.04039961 -2.45581055 2.29345703 C-1.64539307 1.53661621 -0.83497559 0.77977539 0 0 Z " fill="#1B784C" transform="translate(155,91)"/>
<path d="M0 0 C3.44747215 2.79853621 4.88069233 4.22467976 5.56762695 8.6887207 C5.56684281 10.10132163 5.53902725 11.5140919 5.48828125 12.92578125 C5.48120651 13.67337204 5.47413177 14.42096283 5.46684265 15.19120789 C5.43897645 17.56601402 5.37626132 19.93841351 5.3125 22.3125 C5.28740668 23.92770018 5.26459531 25.54293754 5.24414062 27.15820312 C5.18917647 31.10638819 5.10296527 35.05278689 5 39 C4.01 39.495 4.01 39.495 3 40 C1.97749595 33.30139078 1.88243727 26.7684802 1.9375 20 C1.94201172 18.93910156 1.94652344 17.87820312 1.95117188 16.78515625 C1.96286157 14.19004402 1.97924724 11.59505291 2 9 C1.34 8.67 0.68 8.34 0 8 C0.66 7.67 1.32 7.34 2 7 C1.34 4.69 0.68 2.38 0 0 Z " fill="#11875B" transform="translate(220,55)"/>
<path d="M0 0 C3.92322863 1.96161431 6.41692858 4.15732204 9.421875 7.2265625 C9.92672424 7.73424164 10.43157349 8.24192078 10.95172119 8.76498413 C12.55592096 10.38033842 14.15300856 12.00252209 15.75 13.625 C16.83938107 14.72441698 17.9292199 15.82338059 19.01953125 16.921875 C21.68501885 19.6093602 24.34415143 22.30299021 27 25 C25.140625 25.578125 25.140625 25.578125 23 26 C20.75 24.75 20.75 24.75 19 23 C19 22.01 19 21.02 19 20 C18.360625 19.731875 17.72125 19.46375 17.0625 19.1875 C15 18 15 18 14 15 C13.34 14.67 12.68 14.34 12 14 C12 13.34 12 12.68 12 12 C11.236875 11.773125 10.47375 11.54625 9.6875 11.3125 C6.43124404 9.72223546 5.68626801 8.1316406 4 5 C3.34 4.67 2.68 4.34 2 4 C1.67 7.96 1.34 11.92 1 16 C0.67 16 0.34 16 0 16 C0 10.72 0 5.44 0 0 Z " fill="#187E4B" transform="translate(193,29)"/>
<path d="M0 0 C0.33 0 0.66 0 1 0 C1.14573409 3.87358108 1.28794784 7.74727578 1.42724609 11.62109375 C1.4979223 13.56777274 1.57118759 15.51435719 1.64453125 17.4609375 C1.94882047 25.98103571 2.0594191 34.47500977 2 43 C-2 43 -2 43 -4.29003906 41.1640625 C-5.10698242 40.32617188 -5.92392578 39.48828125 -6.765625 38.625 C-7.65507812 37.72265625 -8.54453125 36.8203125 -9.4609375 35.890625 C-10.39084511 34.92729576 -11.3205298 33.96375129 -12.25 33 C-13.194385 32.03554925 -14.13968755 31.07199606 -15.0859375 30.109375 C-17.39981814 27.7482723 -19.7038764 25.37835393 -22 23 C-19 23 -19 23 -17.421875 24.25341797 C-16.87015625 24.82721191 -16.3184375 25.40100586 -15.75 25.9921875 C-15.1415625 26.61480469 -14.533125 27.23742187 -13.90625 27.87890625 C-12.96265625 28.86697266 -12.96265625 28.86697266 -12 29.875 C-10.7522381 31.16622902 -9.50231844 32.45537724 -8.25 33.7421875 C-7.69828125 34.3182373 -7.1465625 34.89428711 -6.578125 35.48779297 C-4.86921765 37.21369277 -4.86921765 37.21369277 -2 39 C-2 39.66 -2 40.32 -2 41 C-1.01 40.505 -1.01 40.505 0 40 C0 26.8 0 13.6 0 0 Z " fill="#1E7E50" transform="translate(223,130)"/>
<path d="M0 0 C1.32 0.33 2.64 0.66 4 1 C4 6.28 4 11.56 4 17 C3.67 17 3.34 17 3 17 C2.855625 15.906875 2.71125 14.81375 2.5625 13.6875 C2.11711896 10.06877013 2.11711896 10.06877013 1 7 C1 6.01 1 5.02 1 4 C0.34 4 -0.32 4 -1 4 C-1.33 4.99 -1.66 5.98 -2 7 C-2.66 7 -3.32 7 -4 7 C-4.226875 7.721875 -4.45375 8.44375 -4.6875 9.1875 C-7.04230888 14.23351903 -11.0301926 17.58225586 -16 20 C-16.66 19.67 -17.32 19.34 -18 19 C-15.29817708 16.29817708 -12.59635417 13.59635417 -9.89453125 10.89453125 C-9.17257568 10.17064209 -9.17257568 10.17064209 -8.43603516 9.43212891 C-7.05374094 8.05359476 -5.65797671 6.68860777 -4.26171875 5.32421875 C-1.88073163 3.01906058 -1.88073163 3.01906058 0 0 Z " fill="#1B7C4D" transform="translate(258,29)"/>
<path d="M0 0 C1.98 0 3.96 0 6 0 C6 10.89 6 21.78 6 33 C3.69 33 1.38 33 -1 33 C-0.34 31.68 0.32 30.36 1 29 C1.33 29.66 1.66 30.32 2 31 C2.66 31 3.32 31 4 31 C4 21.76 4 12.52 4 3 C2.68 2.67 1.36 2.34 0 2 C0 1.34 0 0.68 0 0 Z " fill="#F0F0F0" transform="translate(123,369)"/>
<path d="M0 0 C3.63 0.33 7.26 0.66 11 1 C11 1.66 11 2.32 11 3 C6 4 6 4 -6 4 C-5.67 11.92 -5.34 19.84 -5 28 C-3.02 28.33 -1.04 28.66 1 29 C1 29.33 1 29.66 1 30 C-1.64 30 -4.28 30 -7 30 C-7 20.76 -7 11.52 -7 2 C-4.69 2 -2.38 2 0 2 C0 1.34 0 0.68 0 0 Z " fill="#128A4F" transform="translate(164,96)"/>
<path d="M0 0 C2.31 0 4.62 0 7 0 C7.02886984 3.97915159 7.04675406 7.95827653 7.0625 11.9375 C7.07087891 13.07380859 7.07925781 14.21011719 7.08789062 15.38085938 C7.09111328 16.46044922 7.09433594 17.54003906 7.09765625 18.65234375 C7.10289307 19.65257568 7.10812988 20.65280762 7.11352539 21.68334961 C7 24 7 24 6 25 C4.33382885 25.04063832 2.66611905 25.042721 1 25 C0.67 23.68 0.34 22.36 0 21 C0.66 20.67 1.32 20.34 2 20 C2 20.99 2 21.98 2 23 C2.99 23 3.98 23 5 23 C5 16.07 5 9.14 5 2 C3.35 1.67 1.7 1.34 0 1 C0 0.67 0 0.34 0 0 Z " fill="#EEEEEE" transform="translate(191,377)"/>
<path d="M0 0 C0.66 0.33 1.32 0.66 2 1 C0.58143752 4.33435305 -1.09931563 6.19565826 -3.875 8.5 C-4.58785156 9.10585937 -5.30070312 9.71171875 -6.03515625 10.3359375 C-6.68355469 10.88507813 -7.33195312 11.43421875 -8 12 C-10.28488908 14.0996278 -11.86305047 15.76778123 -13.4375 18.4375 C-15.30217569 21.49556813 -17.24194979 23.71283641 -20 26 C-22.16015625 25.6328125 -22.16015625 25.6328125 -24 25 C-23.37955811 24.38479492 -22.75911621 23.76958984 -22.11987305 23.13574219 C-19.80875705 20.84171672 -17.49993731 18.54541121 -15.19262695 16.24755859 C-14.19548833 15.25543397 -13.19745212 14.26421061 -12.19848633 13.27392578 C-10.75883147 11.84646531 -9.3224863 10.41574407 -7.88671875 8.984375 C-7.02264404 8.12553711 -6.15856934 7.26669922 -5.26831055 6.38183594 C-3.32309427 4.33926463 -1.62644361 2.29889312 0 0 Z " fill="#186B43" transform="translate(146,68)"/>
<path d="M0 0 C0.33 0 0.66 0 1 0 C1 18.81 1 37.62 1 57 C1.99 57.33 2.98 57.66 4 58 C3.67 58.66 3.34 59.32 3 60 C2.01 60 1.02 60 0 60 C0 40.2 0 20.4 0 0 Z " fill="#0C8B4C" transform="translate(120,111)"/>
<path d="M0 0 C2 3 2 3 1.94140625 5.8515625 C0.75255619 9.82755066 -1.0508731 11.5539824 -4.0625 14.375 C-5.44115234 15.68597656 -5.44115234 15.68597656 -6.84765625 17.0234375 C-7.55792969 17.67570312 -8.26820313 18.32796875 -9 19 C-10.1694002 16.66119961 -10.6127985 14.58134335 -11 12 C-10.67 11.34 -10.34 10.68 -10 10 C-9.2575 10.04125 -8.515 10.0825 -7.75 10.125 C-4.01661373 9.98575102 -4.01661373 9.98575102 -1 8 C-0.3385733 5.29917429 -0.18040919 2.79634246 0 0 Z " fill="#10854B" transform="translate(260,136)"/>
<path d="M0 0 C2.64 0 5.28 0 8 0 C8 2.31 8 4.62 8 7 C7.34 7 6.68 7 6 7 C5.67 7.99 5.34 8.98 5 10 C4.67 9.34 4.34 8.68 4 8 C1.47266765 7.34444881 1.47266765 7.34444881 -1 7 C-0.67 4.69 -0.34 2.38 0 0 Z " fill="#F7F8F8" transform="translate(167,206)"/>
<path d="M0 0 C0.6640625 1.78515625 0.6640625 1.78515625 1 4 C-0.0390625 5.74609375 -0.0390625 5.74609375 -1.625 7.4375 C-2.18316406 8.04078125 -2.74132812 8.6440625 -3.31640625 9.265625 C-3.87199219 9.83796875 -4.42757812 10.4103125 -5 11 C-6.2684375 12.3303125 -6.2684375 12.3303125 -7.5625 13.6875 C-9.94271054 15.94564846 -12.40320669 17.99675944 -15 20 C-14.625 17.5625 -14.625 17.5625 -14 15 C-13.34 14.67 -12.68 14.34 -12 14 C-11.896875 13.38125 -11.79375 12.7625 -11.6875 12.125 C-11 10 -11 10 -8.5625 8.25 C-6 7 -6 7 -4 7 C-3.34 5.35 -2.68 3.7 -2 2 C-1.34 2 -0.68 2 0 2 C0 1.34 0 0.68 0 0 Z " fill="#148450" transform="translate(187,56)"/>
<path d="M0 0 C1 2 1 2 0.125 5.125 C-0.05804688 5.66382813 -0.24109375 6.20265625 -0.4296875 6.7578125 C-2.2710643 13.99719801 -2.27912478 21.57649833 -2.5625 29 C-2.60568359 30.06089844 -2.64886719 31.12179688 -2.69335938 32.21484375 C-2.79855996 34.80979151 -2.90070119 37.40482084 -3 40 C-3.33 40 -3.66 40 -4 40 C-4.09911652 35.10707468 -4.17158399 30.21473779 -4.21972656 25.32104492 C-4.23980207 23.65752987 -4.26706876 21.99408504 -4.30175781 20.33081055 C-4.35045766 17.9352076 -4.37300856 15.54054008 -4.390625 13.14453125 C-4.41127014 12.4047554 -4.43191528 11.66497955 -4.45318604 10.90278625 C-4.45531702 5.96298303 -3.47451059 3.50156128 0 0 Z " fill="#1C7146" transform="translate(232,55)"/>
<path d="M0 0 C2.64 0 5.28 0 8 0 C8 2.31 8 4.62 8 7 C5.36 7 2.72 7 0 7 C0 4.69 0 2.38 0 0 Z " fill="#F5F5F5" transform="translate(176,206)"/>
<path d="M0 0 C0.99 0.495 0.99 0.495 2 1 C2 7.93 2 14.86 2 22 C3.32 22 4.64 22 6 22 C6 22.66 6 23.32 6 24 C4.02 24 2.04 24 0 24 C0 16.08 0 8.16 0 0 Z " fill="#EFF0F0" transform="translate(254,315)"/>
<path d="M0 0 C2.64 0 5.28 0 8 0 C8 1.98 8 3.96 8 6 C5.36 6 2.72 6 0 6 C0 4.02 0 2.04 0 0 Z " fill="#F7F7F7" transform="translate(215,228)"/>
<path d="M0 0 C0.66 0.33 1.32 0.66 2 1 C-3.28 6.28 -8.56 11.56 -14 17 C-14.66 16.34 -15.32 15.68 -16 15 C-12.375 9.125 -12.375 9.125 -9 8 C-5.73105898 5.56924899 -2.82567947 2.93033427 0 0 Z " fill="#1F764A" transform="translate(248,155)"/>
<path d="M0 0 C1.32 0.33 2.64 0.66 4 1 C3.67 1.33 3.34 1.66 3 2 C2.84379445 3.41327947 2.74943827 4.8335459 2.68359375 6.25390625 C2.64169922 7.10791016 2.59980469 7.96191406 2.55664062 8.84179688 C2.49766602 10.18854492 2.49766602 10.18854492 2.4375 11.5625 C2.39431641 12.46419922 2.35113281 13.36589844 2.30664062 14.29492188 C2.20021858 16.52978485 2.09820012 18.76476308 2 21 C1.34 21 0.68 21 0 21 C0 14.07 0 7.14 0 0 Z " fill="#F3F3F3" transform="translate(182,240)"/>
<path d="M0 0 C1.49536133 1.27661133 1.49536133 1.27661133 3 3 C3.05546517 5.67108574 2.96547069 8.05292823 2.6875 10.6875 C2.62626953 11.38939453 2.56503906 12.09128906 2.50195312 12.81445312 C2.34897376 14.5442967 2.17637398 16.27238497 2 18 C2.99 18.33 3.98 18.66 5 19 C3.0625 19.5625 3.0625 19.5625 1 20 C0 19 0 19 -0.11352539 17.14233398 C-0.10828857 16.35157471 -0.10305176 15.56081543 -0.09765625 14.74609375 C-0.09443359 13.89208984 -0.09121094 13.03808594 -0.08789062 12.15820312 C-0.07951172 11.26037109 -0.07113281 10.36253906 -0.0625 9.4375 C-0.05798828 8.53580078 -0.05347656 7.63410156 -0.04882812 6.70507812 C-0.03700225 4.46998686 -0.0205222 2.23502563 0 0 Z " fill="#157147" transform="translate(228,154)"/>
<path d="M0 0 C1.32 0.66 2.64 1.32 4 2 C3.84660156 2.55816406 3.69320312 3.11632813 3.53515625 3.69140625 C2.97336591 6.11489598 2.67779835 8.46204553 2.4375 10.9375 C2.35371094 11.77152344 2.26992187 12.60554688 2.18359375 13.46484375 C2.00097606 15.98652211 1.96835228 18.47270377 2 21 C-0.9008692 18.0991308 -0.49891028 14.96116375 -0.6875 11.0625 C-0.73455078 10.33353516 -0.78160156 9.60457031 -0.83007812 8.85351562 C-1.01308396 5.58041124 -1.04585857 3.1375757 0 0 Z " fill="#006036" transform="translate(187,37)"/>
<path d="M0 0 C0.33 0 0.66 0 1 0 C1 8.58 1 17.16 1 26 C-0.98 26 -2.96 26 -5 26 C-5.33 25.01 -5.66 24.02 -6 23 C-5.34 22.67 -4.68 22.34 -4 22 C-4 22.66 -4 23.32 -4 24 C-3.01 23.67 -2.02 23.34 -1 23 C-0.67 15.41 -0.34 7.82 0 0 Z " fill="#067B42" transform="translate(229,72)"/>
<path d="M0 0 C0.33 0 0.66 0 1 0 C1.02685412 2.31243792 1.04632841 4.6249627 1.0625 6.9375 C1.07410156 8.22527344 1.08570313 9.51304687 1.09765625 10.83984375 C1 14 1 14 0 15 C-1.66617115 15.04063832 -3.33388095 15.042721 -5 15 C-4.67 13.68 -4.34 12.36 -4 11 C-4 11.66 -4 12.32 -4 13 C-3.01 13 -2.02 13 -1 13 C-1.01160156 12.14535156 -1.02320313 11.29070312 -1.03515625 10.41015625 C-1.04869141 8.75306641 -1.04869141 8.75306641 -1.0625 7.0625 C-1.07410156 5.96035156 -1.08570313 4.85820312 -1.09765625 3.72265625 C-1 1 -1 1 0 0 Z " fill="#F3F3F3" transform="translate(162,324)"/>
<path d="M0 0 C0.99 0.495 0.99 0.495 2 1 C3.65480178 6.13859499 4.33534095 9.6586362 3 15 C2.01 15 1.02 15 0 15 C0 10.05 0 5.1 0 0 Z " fill="#0F894B" transform="translate(230,157)"/>
<path d="M0 0 C0.33 1.32 0.66 2.64 1 4 C-2.38583802 7.13107836 -4.71109462 7.33550778 -9.25 7.1875 C-10.86648437 7.14689453 -10.86648437 7.14689453 -12.515625 7.10546875 C-13.74539062 7.05326172 -13.74539062 7.05326172 -15 7 C-14.67 6.01 -14.34 5.02 -14 4 C-10.04 4 -6.08 4 -2 4 C-1.34 2.68 -0.68 1.36 0 0 Z " fill="#F0F0F0" transform="translate(105,228)"/>
<path d="M0 0 C0.33 0 0.66 0 1 0 C1 2.97 1 5.94 1 9 C1.99 9 2.98 9 4 9 C4.33 8.01 4.66 7.02 5 6 C5 7.65 5 9.3 5 11 C3.02 11 1.04 11 -1 11 C-1.02688151 9.35425434 -1.04634123 7.70838587 -1.0625 6.0625 C-1.07410156 5.14597656 -1.08570313 4.22945313 -1.09765625 3.28515625 C-1 1 -1 1 0 0 Z " fill="#F2F2F2" transform="translate(190,328)"/>
<path d="M0 0 C1.98 0 3.96 0 6 0 C5.67 0.99 5.34 1.98 5 3 C4.01 2.67 3.02 2.34 2 2 C2 5.3 2 8.6 2 12 C1.34 11.67 0.68 11.34 0 11 C0 7.37 0 3.74 0 0 Z " fill="#F2F3F3" transform="translate(419,377)"/>
<path d="M0 0 C0.33 0 0.66 0 1 0 C1 6.27 1 12.54 1 19 C2.65 19 4.3 19 6 19 C4.625 20.5 4.625 20.5 3 22 C2.34 22 1.68 22 1 22 C-0.20029908 19.59940183 -0.11459743 18.10639351 -0.09765625 15.4296875 C-0.09443359 14.53378906 -0.09121094 13.63789063 -0.08789062 12.71484375 C-0.07951172 11.77769531 -0.07113281 10.84054688 -0.0625 9.875 C-0.05798828 8.93011719 -0.05347656 7.98523438 -0.04882812 7.01171875 C-0.03702357 4.67441613 -0.02055759 2.33723939 0 0 Z " fill="#2B7753" transform="translate(118,152)"/>
<path d="M0 0 C0.66 0 1.32 0 2 0 C2 2.66666667 2 5.33333333 2 8 C2.32205743 10.33491639 2.65458149 12.66842508 3 15 C2.34 15 1.68 15 1 15 C1 13.02 1 11.04 1 9 C-0.32 9 -1.64 9 -3 9 C-2.67 8.01 -2.34 7.02 -2 6 C-1.34 5.67 -0.68 5.34 0 5 C0 3.35 0 1.7 0 0 Z " fill="#F0F0F0" transform="translate(199,243)"/>
<path d="M0 0 C2 2 2 2 2 6 C1.34 6 0.68 6 0 6 C-0.33 6.99 -0.66 7.98 -1 9 C-1.33 8.34 -1.66 7.68 -2 7 C-4.52733235 6.34444881 -4.52733235 6.34444881 -7 6 C-6.34 5.01 -5.68 4.02 -5 3 C-3.68 3 -2.36 3 -1 3 C-0.67 2.01 -0.34 1.02 0 0 Z " fill="#EEEFEF" transform="translate(173,207)"/>
<path d="M0 0 C0 3.48123131 -0.41151304 3.86520636 -2.75 6.25 C-3.26046875 6.79140625 -3.7709375 7.3328125 -4.296875 7.890625 C-6 9 -6 9 -8.203125 8.671875 C-8.79609375 8.45015625 -9.3890625 8.2284375 -10 8 C-6.88983545 4.71211176 -3.98381075 2.16264012 0 0 Z " fill="#137D49" transform="translate(132,85)"/>
<path d="M0 0 C1.32 0.33 2.64 0.66 4 1 C2.38405168 3.04119788 0.7143618 5.04072937 -1 7 C-1.66 7 -2.32 7 -3 7 C-3.33 7.99 -3.66 8.98 -4 10 C-4.99 9.67 -5.98 9.34 -7 9 C-6.34 8.67 -5.68 8.34 -5 8 C-4.67 7.34 -4.34 6.68 -4 6 C-3 4 -3 4 -1 3 C-0.67 2.01 -0.34 1.02 0 0 Z " fill="#17794C" transform="translate(168,76)"/>
<path d="M0 0 C1.48046875 1.25390625 1.48046875 1.25390625 3 3 C3.36302306 7.57409061 3.62404613 11.06393081 1 15 C-0.09506492 11.71480525 -0.09960608 9.26336585 -0.0625 5.8125 C-0.05347656 4.72582031 -0.04445312 3.63914062 -0.03515625 2.51953125 C-0.02355469 1.68808594 -0.01195312 0.85664063 0 0 Z " fill="#F0F1F3" transform="translate(225,382)"/>
<path d="M0 0 C0.66 0 1.32 0 2 0 C2 1.32 2 2.64 2 4 C1.01 4 0.02 4 -1 4 C-1 4.66 -1 5.32 -1 6 C-2.95927063 7.7143618 -4.95880212 9.38405168 -7 11 C-7.66 10.67 -8.32 10.34 -9 10 C-7.37660195 8.29115995 -5.70680947 6.62553283 -4 5 C-3.34 5 -2.68 5 -2 5 C-1.855625 4.360625 -1.71125 3.72125 -1.5625 3.0625 C-1 1 -1 1 0 0 Z " fill="#0F8A4C" transform="translate(148,68)"/>
<path d="M0 0 C1.65 0.33 3.3 0.66 5 1 C4.360625 1.825 3.72125 2.65 3.0625 3.5 C0.53586919 7.23191406 0.30639772 10.55723303 0 15 C-0.33 15 -0.66 15 -1 15 C-1.10251672 9.87416389 -1.03590199 5.05002222 0 0 Z " fill="#0B8B4C" transform="translate(121,94)"/>
<path d="M0 0 C1.36118395 2.72236789 0.41390806 4.19776129 -0.453125 6.98046875 C-1.34728477 10.28247303 -1.64230282 13.60187681 -2 17 C-2.33 17 -2.66 17 -3 17 C-4.61050328 6.02407002 -4.61050328 6.02407002 -2.0625 1.75 C-1.381875 1.1725 -0.70125 0.595 0 0 Z " fill="#127749" transform="translate(232,55)"/>
<path d="M0 0 C0.8125 1.625 0.8125 1.625 1 4 C-1.3125 7.25 -1.3125 7.25 -4 10 C-4.66 10 -5.32 10 -6 10 C-6 9.01 -6 8.02 -6 7 C-5.34 7 -4.68 7 -4 7 C-3.34 5.35 -2.68 3.7 -2 2 C-1.34 2 -0.68 2 0 2 C0 1.34 0 0.68 0 0 Z " fill="#1B7549" transform="translate(187,56)"/>
<path d="M0 0 C1.98 0 3.96 0 6 0 C6 0.66 6 1.32 6 2 C4.68 2 3.36 2 2 2 C2 4.31 2 6.62 2 9 C1.34 9 0.68 9 0 9 C0 6.03 0 3.06 0 0 Z " fill="#F2F3F3" transform="translate(300,377)"/>
<path d="M0 0 C-0.33 1.98 -0.66 3.96 -1 6 C-2.65 6 -4.3 6 -6 6 C-5.34 5.67 -4.68 5.34 -4 5 C-4 4.34 -4 3.68 -4 3 C-4.99 3 -5.98 3 -7 3 C-7 2.34 -7 1.68 -7 1 C-4.53721199 -0.231394 -2.7204945 -0.07159196 0 0 Z " fill="#F3F4F3" transform="translate(374,377)"/>
<path d="M0 0 C-0.33 1.32 -0.66 2.64 -1 4 C-1.7425 3.79375 -2.485 3.5875 -3.25 3.375 C-6.32330841 2.95591249 -7.42786866 3.38050989 -10 5 C-10 3 -10 3 -8.9375 1.375 C-6.03661182 -0.68369484 -3.45519943 -0.19557733 0 0 Z " fill="#F1F3F2" transform="translate(398,330)"/>
<path d="M0 0 C2 3 2 3 1.9375 5.9375 C0.78580061 9.69971802 -0.78008163 10.85338775 -4 13 C-3.67 11.35 -3.34 9.7 -3 8 C-2.34 8 -1.68 8 -1 8 C-0.67 5.36 -0.34 2.72 0 0 Z " fill="#1E7F50" transform="translate(260,136)"/>
<path d="M0 0 C0.99 0 1.98 0 3 0 C3 3.3 3 6.6 3 10 C2.01 10.495 2.01 10.495 1 11 C1 8.03 1 5.06 1 2 C0.34 1.67 -0.32 1.34 -1 1 C-0.67 0.67 -0.34 0.34 0 0 Z " fill="#F0F0F0" transform="translate(148,371)"/>
<path d="M0 0 C1.98 0 3.96 0 6 0 C5.67 0.66 5.34 1.32 5 2 C4.01 2 3.02 2 2 2 C2 3.65 2 5.3 2 7 C1.01 7.495 1.01 7.495 0 8 C0 5.36 0 2.72 0 0 Z " fill="#F0F2F1" transform="translate(360,377)"/>
<path d="M0 0 C0 1.65 0 3.3 0 5 C-1.32 5.33 -2.64 5.66 -4 6 C-4.33 5.34 -4.66 4.68 -5 4 C-4.01 4 -3.02 4 -2 4 C-2 3.34 -2 2.68 -2 2 C-3.32 1.67 -4.64 1.34 -6 1 C-4 0 -4 0 0 0 Z " fill="#EDEEEE" transform="translate(346,333)"/>
<path d="M0 0 C0.66 0 1.32 0 2 0 C3.60725635 3.21451269 3.05748185 6.43612536 3 10 C2.01 10 1.02 10 0 10 C0 6.7 0 3.4 0 0 Z " fill="#F4F5F5" transform="translate(222,320)"/>
<path d="M0 0 C3.3 0 6.6 0 10 0 C10.33 1.32 10.66 2.64 11 4 C10.401875 3.649375 9.80375 3.29875 9.1875 2.9375 C6.89186786 1.66695302 6.89186786 1.66695302 4 3 C1.8125 2.0625 1.8125 2.0625 0 1 C0 0.67 0 0.34 0 0 Z " fill="#EEEEEE" transform="translate(98,240)"/>
<path d="M0 0 C3.3 0 6.6 0 10 0 C10 0.66 10 1.32 10 2 C6.30458414 2.95024979 3.69541586 2.95024979 0 2 C0 1.34 0 0.68 0 0 Z " fill="#177D49" transform="translate(165,97)"/>
<path d="M0 0 C0.78375 0.04125 1.5675 0.0825 2.375 0.125 C2.375 0.785 2.375 1.445 2.375 2.125 C1.055 2.125 -0.265 2.125 -1.625 2.125 C-1.955 4.105 -2.285 6.085 -2.625 8.125 C-2.955 8.125 -3.285 8.125 -3.625 8.125 C-4.25 5.25 -4.25 5.25 -4.625 2.125 C-2.625 0.125 -2.625 0.125 0 0 Z " fill="#EEF1F1" transform="translate(405.625,376.875)"/>
<path d="M0 0 C0.66 0 1.32 0 2 0 C0.375 5.75 0.375 5.75 -3 8 C-3.33 7.34 -3.66 6.68 -4 6 C-2.7260411 3.96166576 -1.38938077 1.96147874 0 0 Z " fill="#1A804E" transform="translate(236,164)"/>
<path d="M0 0 C0.33 0.66 0.66 1.32 1 2 C2.98 2 4.96 2 7 2 C6.34 3.32 5.68 4.64 5 6 C4.67 5.34 4.34 4.68 4 4 C2.10466658 3.53476937 2.10466658 3.53476937 -0.0625 3.375 C-1.361875 3.25125 -2.66125 3.1275 -4 3 C-2.68 2.01 -1.36 1.02 0 0 Z " fill="#0E8950" transform="translate(180,96)"/>
<path d="M0 0 C0.66 0.33 1.32 0.66 2 1 C0.1875 3 0.1875 3 -2 5 C-2.99 5 -3.98 5 -5 5 C-5.33 5.99 -5.66 6.98 -6 8 C-6.33 7.34 -6.66 6.68 -7 6 C-5.01180815 3.01771223 -3.42353587 1.21480305 0 0 Z " fill="#118950" transform="translate(160,86)"/>
<path d="M0 0 C1.98 0 3.96 0 6 0 C5.6875 2.375 5.6875 2.375 5 5 C4.01 5.66 3.02 6.32 2 7 C2.66 5.35 3.32 3.7 4 2 C2.68 1.67 1.36 1.34 0 1 C0 0.67 0 0.34 0 0 Z " fill="#F1F1F1" transform="translate(146,330)"/>
<path d="M0 0 C2.97 0 5.94 0 9 0 C9.33 0.66 9.66 1.32 10 2 C6.42355152 3.2380014 3.66305234 2.74926071 0 2 C0 1.34 0 0.68 0 0 Z " fill="#F3F4F3" transform="translate(339,384)"/>
<path d="M0 0 C2.475 0.495 2.475 0.495 5 1 C4.67 3.97 4.34 6.94 4 10 C3.67 10 3.34 10 3 10 C2.87625 8.865625 2.7525 7.73125 2.625 6.5625 C2.41875 5.386875 2.2125 4.21125 2 3 C1.34 2.67 0.68 2.34 0 2 C0 1.34 0 0.68 0 0 Z " fill="#F3F3F3" transform="translate(151,240)"/>
<path d="M0 0 C2 3 2 3 2 5 C0.02 5 -1.96 5 -4 5 C-4 4.01 -4 3.02 -4 2 C-2.02 2.495 -2.02 2.495 0 3 C0 2.01 0 1.02 0 0 Z " fill="#F1F1F1" transform="translate(98,334)"/>
<path d="M0 0 C0.99 0.33 1.98 0.66 3 1 C3 2.65 3 4.3 3 6 C1 3 1 3 0 0 Z " fill="#FFFFFF" transform="translate(398,381)"/>
<path d="M0 0 C0.33 0.99 0.66 1.98 1 3 C0.34 3.66 -0.32 4.32 -1 5 C-1.33 3.68 -1.66 2.36 -2 1 C-1.34 0.67 -0.68 0.34 0 0 Z " fill="#FFFFFF" transform="translate(121,395)"/>
<path d="M0 0 C0.66 0 1.32 0 2 0 C2 1.32 2 2.64 2 4 C1.34 4 0.68 4 0 4 C0 2.68 0 1.36 0 0 Z " fill="#FFFFFF" transform="translate(229,383)"/>
<path d="M0 0 C0.33 0.99 0.66 1.98 1 3 C0.01 3.495 0.01 3.495 -1 4 C-0.67 2.68 -0.34 1.36 0 0 Z " fill="#FFFFFF" transform="translate(307,325)"/>
<path d="M0 0 C0 3 0 3 0 3 Z " fill="#FFFFFF" transform="translate(271,382)"/>
<path d="M0 0 C0.66 0 1.32 0 2 0 C2 0.66 2 1.32 2 2 C1.34 2 0.68 2 0 2 C0 1.34 0 0.68 0 0 Z " fill="#FFFFFF" transform="translate(210,375)"/>
<path d="M0 0 C0.66 0.66 1.32 1.32 2 2 C1.01 2.495 1.01 2.495 0 3 C0 2.01 0 1.02 0 0 Z " fill="#FFFFFF" transform="translate(372,322)"/>
<path d="" fill="#FFFFFF" transform="translate(0,0)"/>
<path d="M0 0 C0.99 0.495 0.99 0.495 2 1 C1.01 1.495 1.01 1.495 0 2 C0 1.34 0 0.68 0 0 Z " fill="#FFFFFF" transform="translate(346,392)"/>
<path d="M0 0 C0.66 0.66 1.32 1.32 2 2 C1.34 2 0.68 2 0 2 C0 1.34 0 0.68 0 0 Z " fill="#FFFFFF" transform="translate(245,379)"/>
<path d="M0 0 C3 1 3 1 3 1 Z " fill="#FFFFFF" transform="translate(238,332)"/>
<path d="M0 0 C0.99 0.495 0.99 0.495 2 1 C1.01 1.495 1.01 1.495 0 2 C0 1.34 0 0.68 0 0 Z " fill="#FFFFFF" transform="translate(226,319)"/>
<path d="M0 0 C2 1 2 1 2 1 Z " fill="#FFFFFF" transform="translate(357,386)"/>
<path d="" fill="#FFFFFF" transform="translate(0,0)"/>
<path d="M0 0 C2 1 2 1 2 1 Z " fill="#FFFFFF" transform="translate(236,331)"/>
<path d="" fill="#FFFFFF" transform="translate(0,0)"/>
<path d="" fill="#FFFFFF" transform="translate(0,0)"/>
<path d="" fill="#FFFFFF" transform="translate(0,0)"/>
<path d="M0 0 C2 1 2 1 2 1 Z " fill="#FFFFFF" transform="translate(137,321)"/>
<path d="M0 0 C2 1 2 1 2 1 Z " fill="#FFFFFF" transform="translate(176,315)"/>
<path d="" fill="#FFFFFF" transform="translate(0,0)"/>
<path d="" fill="#FFFFFF" transform="translate(0,0)"/>
<path d="" fill="#FFFFFF" transform="translate(0,0)"/>
<path d="" fill="#FFFFFF" transform="translate(0,0)"/>
<path d="" fill="#FFFFFF" transform="translate(0,0)"/>
<path d="" fill="#FFFFFF" transform="translate(0,0)"/>
<path d="" fill="#FFFFFF" transform="translate(0,0)"/>
<path d="" fill="#FFFFFF" transform="translate(0,0)"/>
<path d="" fill="#FFFFFF" transform="translate(0,0)"/>
<path d="" fill="#FFFFFF" transform="translate(0,0)"/>
<path d="" fill="#FFFFFF" transform="translate(0,0)"/>
<path d="" fill="#FFFFFF" transform="translate(0,0)"/>
<path d="" fill="#FFFFFF" transform="translate(0,0)"/>
<path d="" fill="#FFFFFF" transform="translate(0,0)"/>
<path d="" fill="#FFFFFF" transform="translate(0,0)"/>
<path d="" fill="#FFFFFF" transform="translate(0,0)"/>
<path d="" fill="#FFFFFF" transform="translate(0,0)"/>
<path d="" fill="#FFFFFF" transform="translate(0,0)"/>
<path d="" fill="#FFFFFF" transform="translate(0,0)"/>
<path d="" fill="#FFFFFF" transform="translate(0,0)"/>
<path d="" fill="#FFFFFF" transform="translate(0,0)"/>
<path d="" fill="#FFFFFF" transform="translate(0,0)"/>
<path d="" fill="#FFFFFF" transform="translate(0,0)"/>
<path d="" fill="#FFFFFF" transform="translate(0,0)"/>
<path d="" fill="#FFFFFF" transform="translate(0,0)"/>
<path d="" fill="#FFFFFF" transform="translate(0,0)"/>
<path d="" fill="#FFFFFF" transform="translate(0,0)"/>
<path d="" fill="#FFFFFF" transform="translate(0,0)"/>
<path d="" fill="#FFFFFF" transform="translate(0,0)"/>
<path d="" fill="#FFFFFF" transform="translate(0,0)"/>
<path d="" fill="#FFFFFF" transform="translate(0,0)"/>
<path d="" fill="#FFFFFF" transform="translate(0,0)"/>
<path d="" fill="#FFFFFF" transform="translate(0,0)"/>
</svg>
