<svg width="18" height="17" viewBox="0 0 18 17" fill="none" xmlns="http://www.w3.org/2000/svg">
<g clip-path="url(#clip0_1_2629)">
<path d="M17.1492 5.09521C17.1492 5.09521 16.9834 3.92427 16.4725 3.41012C15.8257 2.73343 15.1026 2.73012 14.7709 2.69031C12.3958 2.51782 8.82994 2.51782 8.82994 2.51782H8.8233C8.8233 2.51782 5.25742 2.51782 2.88237 2.69031C2.55066 2.73012 1.82753 2.73343 1.1807 3.41012C0.669866 3.92427 0.507328 5.09521 0.507328 5.09521C0.507328 5.09521 0.334839 6.47181 0.334839 7.84509V9.13212C0.334839 10.5054 0.504011 11.882 0.504011 11.882C0.504011 11.882 0.669866 13.0529 1.17738 13.5671C1.82422 14.2438 2.6734 14.2206 3.05155 14.2935C4.41156 14.4229 8.82662 14.4627 8.82662 14.4627C8.82662 14.4627 12.3958 14.4561 14.7709 14.2869C15.1026 14.2471 15.8257 14.2438 16.4725 13.5671C16.9834 13.0529 17.1492 11.882 17.1492 11.882C17.1492 11.882 17.3184 10.5087 17.3184 9.13212V7.84509C17.3184 6.47181 17.1492 5.09521 17.1492 5.09521ZM7.07187 10.6945V5.92117L11.6594 8.31612L7.07187 10.6945Z" fill="black"/>
</g>
<defs>
<clipPath id="clip0_1_2629">
<rect width="16.9836" height="16.9836" fill="white" transform="translate(0.334839 0.00012207)"/>
</clipPath>
</defs>
</svg>
